DBRep_DrawableShape

CASCADE Topology V3, (c) Open Cascade
Locations 0
Curve2ds 312
1 0 0 1 0 
2 0 0 1 0 -0 1 0.25
1 0 0 1 0 
2 0 0 1 0 -0 1 0.23000000000000001
2 0 0 1 0 -0 1 0.23000000000000001
2 0 0 1 0 -0 1 0.23000000000000001
7 0 0  5 10 3  0 -2.1719618833494769e-17  0.0019838136567295024 -2.1097536802500111e-17  0.0039685357717626282 -2.5228976693077636e-17  0.0059514596736619883 -2.0727907029773808e-17  0.0079361952839894535 -2.091174331624392e-17  0.011935788478719529 -1.7685904853862428e-17  0.013952586930004052 -1.5508167197676862e-17  0.015967417922513424 -1.4154523921937875e-17  0.017984201737306756 -1.233175558738746e-17  0.01999999999999999 -1.2016009389749505e-17 
 0 6 0.49600162302127093 4 1 6
7 0 0  5 10 3  -0.2247312775330397 -0.048947450376581512  -0.22487117351219513 -0.048305149258229992  -0.2248352712330581 -0.047624145784392398  -0.22460864397390759 -0.046969848850835494  -0.22421568581103446 -0.046412532359514848  -0.22319309664841575 -0.045569392911572186  -0.22255917648423329 -0.045287614051599034  -0.22186055633002694 -0.045194270475386024  -0.22117487525945215 -0.045299788362591832  -0.22056603773584907 -0.045574533369499605 
 0 6 0.49600162302127093 4 1 6
1 -6.2038068193474318 0 1 0 
2 -0.017999999999999999 -0.2262852182534246 0 -1 1 0 0.0030000000000000001
1 0 0 1 0 
2 0 0 1 0 -0 1 0.050000000000000003
2 -0.20000000000000001 0 1 0 -0 1 0.049999999999999989
2 -0.20000000000000001 0 1 0 -0 1 0.049999999999999989
1 0 0 0 -1 
1 0 0 0 1 
1 -0.014999999999999999 -0.23100000000000001 0 1 
1 -0.014999999999999999 -0.23100000000000001 0 1 
1 -1.9173119898187734 0 1 0 
2 -0.15015022567754194 -0.017999999999999999 0 -1 -1 -0 0.0030000000000000001
1 -1.5707963267948966 0 1 0 
2 -0.017999999999999999 -0.027658633371878665 0 -1 1 0 0.0030000000000000001
1 0 0 0 1 
1 0 0 1 0 
1 -0.23100000000000001 -0.014999999999999999 1 0 
1 -0.23100000000000001 -0.014999999999999999 1 0 
1 0 0 1 0 
2 0 0 1 0 -0 1 0.029999999999999999
2 0 0 1 0 -0 1 0.029999999999999999
2 0 0 1 0 -0 1 0.029999999999999999
1 -2.1477276720313574 0 1 0 
2 -0.027658633371878665 -0.017999999999999999 0 -1 1 0 0.0030000000000000001
2 -0.20000000000000001 0 1 0 -0 1 0.035000000000000003
1 0 0.029620220376375288 1 0 
1 0 0.029620220376375288 1 0 
2 0 0 1 0 -0 1 0.23000000000000001
1 -6.2038068193474611 0 1 0 
2 0.017999999999999999 -0.2262852182534246 0 -1 -1 -0 0.0030000000000000001
7 0 0  5 10 3  0 -1.2597073991565955e-17  0.0019838136567294465 -1.8242183235132985e-17  0.0039685357717626664 -2.9585869802035647e-17  0.0059514596736621192 -1.9537189819911052e-17  0.0079361952839893998 -2.201371975508039e-17  0.011935788478719594 -1.82275434627493e-17  0.013952586930003912 -1.6271852331688745e-17  0.015967417922513605 -1.1294211505031659e-17  0.017984201737306658 -1.0160483635242867e-17  0.01999999999999999 -5.476915036946306e-18 
 0 6 0.4960016230212696 4 1 6
7 0 0  5 10 3  0.22473127753303962 -0.048947450376581575  0.22487117351219504 -0.048305149258230075  0.22483527123305791 -0.047624145784392433  0.22460864397390798 -0.046969848850835619  0.2242156858110344 -0.046412532359514931  0.22319309664841566 -0.045569392911572235  0.22255917648423329 -0.045287614051599118  0.2218605563300268 -0.045194270475386079  0.22117487525945209 -0.045299788362591895  0.22056603773584899 -0.045574533369499674 
 0 6 0.4960016230212696 4 1 6
1 0 0 0 -1 
1 0.029999999999999999 0 0 1 
1 0.014999999999999999 -0.23100000000000001 0 1 
1 0.014999999999999999 -0.23100000000000001 0 1 
1 0 0 1 0 
2 0 0 1 0 -0 1 0.050000000000000003
2 0.20000000000000001 0 1 0 -0 1 0.049999999999999989
2 0.20000000000000001 0 1 0 -0 1 0.049999999999999989
1 -1.5707963267948966 0 1 0 
2 0.017999999999999999 -0.027658633371878665 0 -1 -1 -0 0.0030000000000000001
1 -1.9173119898187831 0 1 0 
2 0.15015022567754194 -0.017999999999999999 0 -1 1 0 0.0030000000000000001
2 0 0 1 0 -0 1 0.029999999999999999
2 0 0 1 0 -0 1 0.029999999999999999
1 -0.23100000000000001 -0.014999999999999999 1 0 
1 -0.23100000000000001 -0.014999999999999999 1 0 
1 -3.1415926535897931 0 1 0 
2 0.027658633371878665 -0.017999999999999999 0 -1 1 0 0.0030000000000000001
2 0 0 1 0 -0 1 0.0060000000000000001
1 0 0.00099999999999999915 1 0 
2 0.20000000000000001 0 1 0 -0 1 0.035000000000000003
1 0 0.029620220376375288 1 0 
1 0 0.029620220376375288 1 0 
2 0 0 1 0 -0 1 0.23000000000000001
1 -3.062214165757656 0 1 0 
2 -0.017999999999999999 0.2262852182534246 0 -1 -1 -0 0.0030000000000000001
7 0 0  5 10 3  0 -2.1719618833494769e-17  0.0019838136567294803 -2.1097536802500117e-17  0.0039685357717626924 -2.5228976693077617e-17  0.0059514596736619336 -2.0727907029773832e-17  0.0079361952839894709 -2.0911743316243905e-17  0.011935788478719584 -1.7685904853862385e-17  0.013952586930003842 -1.5509094845470427e-17  0.015967417922513744 -1.4152668626406601e-17  0.017984201737306561 -1.2332992436469388e-17  0.01999999999999999 -1.2016009389749505e-17 
 0 6 0.49600162302126183 4 1 6
7 0 0  5 10 3  -0.2247312775330397 0.048947450376581554  -0.22487117351219513 0.04830514925823004  -0.2248352712330581 0.047624145784392453  -0.22460864397390759 0.046969848850835536  -0.22421568581103446 0.046412532359514889  -0.22319309664841575 0.045569392911572221  -0.22255917648423335 0.04528761405159909  -0.22186055633002685 0.045194270475386086  -0.2211748752594522 0.04529978836259186  -0.22056603773584907 0.045574533369499654 
 0 6 0.49600162302126183 4 1 6
1 -0.014999999999999999 -0.23100000000000001 0 1 
1 -0.014999999999999999 -0.23100000000000001 0 1 
2 -0.20000000000000001 0 1 0 -0 1 0.049999999999999989
2 -0.20000000000000001 0 1 0 -0 1 0.049999999999999989
1 -4.7123889803846897 0 1 0 
2 -0.017999999999999999 0.027658633371878665 0 -1 -1 -0 0.0030000000000000001
1 -5.0589046434085736 0 1 0 
2 -0.15015022567754194 0.017999999999999999 0 -1 1 0 0.0030000000000000001
2 0 0 1 0 -0 1 0.029999999999999999
2 0 0 1 0 -0 1 0.029999999999999999
1 0 0 0 1 
1 0 0.029999999999999999 1 0 
1 -0.23100000000000001 0.014999999999999999 1 0 
1 -0.23100000000000001 0.014999999999999999 1 0 
1 0 0 1 0 
2 -0.027658633371878665 0.017999999999999999 0 -1 1 0 0.0030000000000000001
2 0 0 1 0 -0 1 0.23000000000000001
7 0 0  5 10 3  0 -1.5109373713122209e-17  0.0019838136567295094 -1.8423893850854404e-17  0.0039685357717625979 -2.6126962664419598e-17  0.0059514596736620507 -1.8049718717570705e-17  0.0079361952839894171 -1.9273290342477114e-17  0.011935788478719535 -1.5369673393047781e-17  0.013952586930003941 -1.280260812509289e-17  0.015967417922513674 -1.0820127647742786e-17  0.017984201737306589 -7.9634211184458803e-18  0.01999999999999999 -6.6475145700517491e-18 
 0 6 0.4960016230212746 4 1 6
7 0 0  5 10 3  0.22473127753303962 0.048947450376581519  0.22487117351219504 0.048305149258229998  0.22483527123305805 0.047624145784392447  0.22460864397390748 0.04696984885083548  0.2242156858110344 0.046412532359514876  0.22319309664841566 0.0455693929115722  0.22255917648423326 0.045287614051599034  0.22186055633002683 0.045194270475386066  0.22117487525945215 0.045299788362591832  0.22056603773584901 0.045574533369499619 
 0 6 0.4960016230212746 4 1 6
1 -3.0622141657576649 0 1 0 
2 0.017999999999999999 0.2262852182534246 0 -1 1 0 0.0030000000000000001
2 0.20000000000000001 0 1 0 -0 1 0.049999999999999989
2 0.20000000000000001 0 1 0 -0 1 0.049999999999999989
1 0.014999999999999999 -0.23100000000000001 0 1 
1 0.014999999999999999 -0.23100000000000001 0 1 
1 -5.0589046434085745 0 1 0 
2 0.15015022567754194 0.017999999999999999 0 -1 -1 -0 0.0030000000000000001
1 -4.7123889803846897 0 1 0 
2 0.017999999999999999 0.027658633371878665 0 -1 1 0 0.0030000000000000001
1 -0.23100000000000001 0.014999999999999999 1 0 
1 -0.23100000000000001 0.014999999999999999 1 0 
2 0 0 1 0 -0 1 0.029999999999999999
2 0 0 1 0 -0 1 0.029999999999999999
1 -5.2893203256211461 0 1 0 
2 0.027658633371878665 0.017999999999999999 0 -1 1 0 0.0030000000000000001
1 6.2831853071795862 -0 0 1 
1 0 -0 0 1 
8 0 0.02
1 6.2831853071795862 -0 0 1 
8 0 0.02
1 0 0 0 1 
1 6.2831853071795862 0.02 -1 -0 
2 6.9388939039072284e-18 -6.9388939039072284e-18 1 -2.1717378421384173e-16 -2.1717378421384173e-16 -1 0.25
1 0 0 0 1 
7 0 0  1 2 2  3.3560477120589463 0  3.3560477120589463 0.020000000000000004 
 -2.1595952023195641e-17 2 0.019999999999999969 2
1 0 0 0 1 
1 4.6330104925525557 0 0 1 
1 0 0.02 1 0 
2 0 0 1 0 -0 1 0.23000000000000001
2 0 0 1 0 -0 1 0.23000000000000001
2 0 0 1 0 -0 1 0.23000000000000001
1 0.01999999999999999 0 0 1 
7 0 0  1 2 2  4.2884863859199793 5.2041704279304213e-18  4.2884863859199793 0.020000000000000011 
 -2.1595952023195641e-17 2 0.019999999999999969 2
7 0 0  5 10 3  0 0.019999999999999969  0.0019838136567295116 0.019999999999999966  0.0039685357717626161 0.020000000000000046  0.0059514596736619935 0.019999999999999962  0.0079361952839894553 0.019999999999999987  0.011935788478719622 0.019999999999999993  0.013952586930003832 0.019999999999999983  0.015967417922513667 0.02  0.017984201737306641 0.019999999999999987  0.01999999999999999 0.01999999999999999 
 0 6 0.49600162302125905 4 1 6
7 0 0  5 10 3  -0.2247312775330397 -0.048947450376581512  -0.22487117351219513 -0.048305149258229985  -0.2248352712330581 -0.047624145784392405  -0.22460864397390759 -0.046969848850835487  -0.22421568581103446 -0.046412532359514848  -0.22319309664841575 -0.045569392911572165  -0.22255917648423337 -0.045287614051599062  -0.22186055633002688 -0.045194270475386017  -0.22117487525945217 -0.045299788362591818  -0.22056603773584907 -0.045574533369499605 
 0 6 0.49600162302125905 4 1 6
1 1.6501748146270507 0 0 1 
1 0 -0.0047147817465754138 1 0 
1 -6.2038068193474318 0.02 1 0 
2 -0.017999999999999999 -0.2262852182534246 0 -1 1 0 0.0030000000000000001
1 0 0 0 1 
1 5.9366696441557023 0 0 1 
1 0 0.02 1 0 
2 0 0 1 0 -0 1 0.050000000000000003
2 -0.20000000000000001 0 1 0 -0 1 0.049999999999999989
2 -0.20000000000000001 0 1 0 -0 1 0.049999999999999989
1 0.02 0 0 -1 
1 0 0 0 1 
1 -0.014999999999999999 -0.23100000000000001 0 1 
1 -0.014999999999999999 -0.23100000000000001 0 1 
1 3.469446951953615e-15 0 0 1 
1 0 -0.20334136662812136 1 0 
1 1.2242806637710244 0 0 1 
1 0 0.080849774322458073 1 0 
1 -1.9173119898187734 0.02 1 0 
2 -0.15015022567754194 -0.017999999999999999 0 -1 -1 -0 0.0030000000000000001
1 0.99386498155843861 0 0 1 
1 4.1354576351482333 0 0 1 
1 -1.5707963267948966 0.02 1 0 
2 -0.017999999999999999 -0.027658633371878665 0 -1 1 0 0.0030000000000000001
1 0.99386498155843128 0 0 1 
1 0 0.20334136662812136 1 0 
1 0.02 0 0 1 
1 0 0 1 0 
1 -0.23100000000000001 -0.014999999999999999 1 0 
1 -0.23100000000000001 -0.014999999999999999 1 0 
1 0 0 0 1 
1 3.7185239988262495 0 0 1 
1 0 0.02 1 0 
2 0 0 1 0 -0 1 0.029999999999999999
2 0 0 1 0 -0 1 0.029999999999999999
2 0 0 1 0 -0 1 0.029999999999999999
1 -2.1477276720313574 0.02 1 0 
2 -0.027658633371878665 -0.017999999999999999 0 -1 1 0 0.0030000000000000001
2 -0.20000000000000001 0 1 0 -0 1 0.035000000000000003
1 0 0.049620220376375292 1 0 
1 0 0.049620220376375292 1 0 
1 6.2831853071795862 -0 0 1 
1 0 -0 0 1 
8 0.029620220376375288 0.049620220376375292
1 6.2831853071795862 -0 0 1 
8 0.029620220376375288 0.049620220376375292
1 0 0 0 1 
1 0 0 0 1 
1 4.7917674682168236 0 0 1 
1 0 0 0 1 
7 0 0  1 2 2  6.0687302487104331 0  6.0687302487104331 0.020000000000000004 
 -2.1595952023195641e-17 2 0.019999999999999969 2
2 0 0 1 0 -0 1 0.23000000000000001
1 1.6501748146270228 0 0 1 
1 0 -0.0047147817465754138 1 0 
1 -6.2038068193474611 0.02 1 0 
2 0.017999999999999999 -0.2262852182534246 0 -1 -1 -0 0.0030000000000000001
1 0.01999999999999999 0 0 1 
7 0 0  1 2 2  5.1362915748494027 5.2041704279304213e-18  5.1362915748494 0.020000000000000011 
 -2.1595952023195641e-17 2 0.019999999999999969 2
7 0 0  5 10 3  0 0.019999999999999973  0.0019838136567294972 0.019999999999999966  0.0039685357717626655 0.020000000000000042  0.0059514596736619605 0.019999999999999962  0.0079361952839894674 0.019999999999999987  0.011935788478719456 0.019999999999999993  0.013952586930004219 0.01999999999999998  0.01596741792251323 0.020000000000000004  0.017984201737306797 0.019999999999999983  0.01999999999999999 0.01999999999999999 
 0 6 0.49600162302127815 4 1 6
7 0 0  5 10 3  0.22473127753303965 -0.048947450376581575  0.22487117351219507 -0.048305149258230061  0.22483527123305808 -0.047624145784392474  0.22460864397390753 -0.046969848850835577  0.2242156858110344 -0.046412532359514917  0.22319309664841572 -0.045569392911572276  0.22255917648423323 -0.045287614051599111  0.22186055633002685 -0.045194270475386079  0.22117487525945215 -0.045299788362591922  0.2205660377358491 -0.045574533369499681 
 0 6 0.49600162302127815 4 1 6
1 0.02 0 0 -1 
1 0.029999999999999999 0 0 1 
1 0.014999999999999999 -0.23100000000000001 0 1 
1 0.014999999999999999 -0.23100000000000001 0 1 
1 3.469446951953615e-15 0 0 1 
1 0 -0.20334136662812136 1 0 
1 4.6259292692714388e-15 0 0 1 
1 3.4881083166136766 0 0 1 
1 0 0.02 1 0 
2 0 0 1 0 -0 1 0.050000000000000003
2 0.20000000000000001 0 1 0 -0 1 0.049999999999999989
2 0.20000000000000001 0 1 0 -0 1 0.049999999999999989
1 0.99386498155843506 0 0 1 
1 5.2893203256211461 0 0 1 
1 -1.5707963267948966 0.02 1 0 
2 0.017999999999999999 -0.027658633371878665 0 -1 -1 -0 0.0030000000000000001
1 1.2242806637709966 0 0 1 
1 0 0.38115022567754198 1 0 
1 -1.9173119898187831 0.02 1 0 
2 0.15015022567754194 -0.017999999999999999 0 -1 1 0 0.0030000000000000001
1 0.99386498155843928 0 0 1 
1 5.7062539619431298 0 0 1 
2 0 0 1 0 -0 1 0.029999999999999999
2 0 0 1 0 -0 1 0.029999999999999999
1 3.469446951953615e-15 0 0 1 
1 0 0.25865863337187867 1 0 
1 -0.23100000000000001 -0.014999999999999999 1 0 
1 -0.23100000000000001 -0.014999999999999999 1 0 
1 -3.1415926535897931 0.02 1 0 
2 0.027658633371878665 -0.017999999999999999 0 -1 1 0 0.0030000000000000001
2 0 0 1 0 -0 1 0.0060000000000000001
1 0 0.020999999999999998 1 0 
1 6.2831853071795862 -0 0 1 
1 0 -0 0 1 
2 0.20000000000000001 0 1 0 -0 1 0.035000000000000003
1 0 0.049620220376375292 1 0 
1 0 0.049620220376375292 1 0 
1 6.2831853071795862 -0 0 1 
1 0 -0 0 1 
8 0.029620220376375288 0.049620220376375292
1 6.2831853071795862 -0 0 1 
8 0.029620220376375288 0.049620220376375292
1 0 0 0 1 
2 0 0 1 0 -0 1 0.23000000000000001
1 1.156482317317881e-15 0 0 1 
1 1.6501748146270305 0 0 1 
1 0 0 0 1 
7 0 0  1 2 2  2.9271375951206404 0  2.9271375951206404 0.020000000000000004 
 -2.1595952023195641e-17 2 0.019999999999999969 2
1 1.6501748146270321 0 0 1 
1 0 -0.45728521825342461 1 0 
1 -3.062214165757656 0.02 1 0 
2 -0.017999999999999999 0.2262852182534246 0 -1 -1 -0 0.0030000000000000001
1 0.01999999999999999 0 0 1 
7 0 0  1 2 2  1.9946989212596069 5.2041704279304213e-18  1.9946989212596069 0.020000000000000011 
 -2.1595952023195641e-17 2 0.019999999999999969 2
7 0 0  5 10 3  0 0.019999999999999969  0.0019838136567294842 0.019999999999999966  0.0039685357717626863 0.020000000000000046  0.0059514596736619345 0.019999999999999962  0.0079361952839894761 0.019999999999999987  0.01193578847871965 0.019999999999999993  0.013952586930003738 0.019999999999999983  0.015967417922513789 0.02  0.017984201737306568 0.019999999999999987  0.01999999999999999 0.01999999999999999 
 0 6 0.49600162302125295 4 1 6
7 0 0  5 10 3  -0.2247312775330397 0.048947450376581554  -0.22487117351219513 0.048305149258230033  -0.2248352712330581 0.047624145784392453  -0.22460864397390759 0.046969848850835542  -0.22421568581103446 0.046412532359514889  -0.22319309664841572 0.045569392911572207  -0.2225591764842334 0.045287614051599111  -0.22186055633002685 0.045194270475386072  -0.2211748752594522 0.04529978836259186  -0.22056603773584907 0.045574533369499654 
 0 6 0.49600162302125295 4 1 6
1 -0.014999999999999999 -0.23100000000000001 0 1 
1 -0.014999999999999999 -0.23100000000000001 0 1 
1 3.469446951953615e-15 0 0 1 
1 0 -0.25865863337187867 1 0 
2 -0.20000000000000001 0 1 0 -0 1 0.049999999999999989
2 -0.20000000000000001 0 1 0 -0 1 0.049999999999999989
1 0 0 0 1 
1 0.3465156630238837 0 0 1 
1 0.99386498155844027 0 0 1 
1 2.1477276720313534 0 0 1 
1 -4.7123889803846897 0.02 1 0 
2 -0.017999999999999999 0.027658633371878665 0 -1 -1 -0 0.0030000000000000001
1 1.2242806637710155 0 0 1 
1 0 0.080849774322458073 1 0 
1 -5.0589046434085736 0.02 1 0 
2 -0.15015022567754194 0.017999999999999999 0 -1 1 0 0.0030000000000000001
2 0 0 1 0 -0 1 0.029999999999999999
2 0 0 1 0 -0 1 0.029999999999999999
1 0.99386498155843761 0 0 1 
1 2.5646613083533367 0 0 1 
1 3.469446951953615e-15 0 0 1 
1 0 0.20334136662812136 1 0 
1 0.02 0 0 1 
1 0 0.029999999999999999 1 0 
1 -0.23100000000000001 0.014999999999999999 1 0 
1 -0.23100000000000001 0.014999999999999999 1 0 
1 0 0.02 1 0 
2 -0.027658633371878665 0.017999999999999999 0 -1 1 0 0.0030000000000000001
2 0 0 1 0 -0 1 0.23000000000000001
1 0 0 0 1 
7 0 0  1 2 2  0.21445505846915305 0  0.21445505846915311 0.020000000000000004 
 -2.1595952023195641e-17 2 0.019999999999999969 2
1 1.1564823173178703e-15 0 0 1 
1 1.4914178389627628 0 0 1 
1 0.01999999999999999 0 0 1 
7 0 0  1 2 2  1.1468937323301864 5.2041704279304213e-18  1.1468937323301862 0.020000000000000011 
 -2.1595952023195641e-17 2 0.019999999999999969 2
7 0 0  5 10 3  0 0.019999999999999973  0.0019838136567294734 0.019999999999999969  0.0039685357717626699 0.020000000000000042  0.0059514596736619952 0.019999999999999966  0.0079361952839894414 0.019999999999999987  0.011935788478719572 0.019999999999999993  0.013952586930003849 0.019999999999999983  0.015967417922513723 0.02  0.017984201737306582 0.019999999999999983  0.01999999999999999 0.01999999999999999 
 0 6 0.49600162302126705 4 1 6
7 0 0  5 10 3  0.22473127753303965 0.048947450376581526  0.22487117351219507 0.048305149258230012  0.22483527123305802 0.047624145784392412  0.22460864397390756 0.046969848850835515  0.22421568581103443 0.046412532359514869  0.22319309664841569 0.045569392911572193  0.22255917648423326 0.045287614051599055  0.22186055633002683 0.045194270475386059  0.22117487525945215 0.045299788362591825  0.22056603773584904 0.045574533369499612 
 0 6 0.49600162302126705 4 1 6
1 1.6501748146270228 0 0 1 
1 0 -0.45728521825342461 1 0 
1 -3.0622141657576649 0.02 1 0 
2 0.017999999999999999 0.2262852182534246 0 -1 1 0 0.0030000000000000001
2 0.20000000000000001 0 1 0 -0 1 0.049999999999999989
2 0.20000000000000001 0 1 0 -0 1 0.049999999999999989
1 0 0 0 1 
1 2.7950769905659096 0 0 1 
1 0.014999999999999999 -0.23100000000000001 0 1 
1 0.014999999999999999 -0.23100000000000001 0 1 
1 3.469446951953615e-15 0 0 1 
1 0 -0.25865863337187867 1 0 
1 1.2242806637709966 0 0 1 
1 0 0.38115022567754198 1 0 
1 -5.0589046434085745 0.02 1 0 
2 0.15015022567754194 0.017999999999999999 0 -1 -1 -0 0.0030000000000000001
1 0.99386498155844027 0 0 1 
1 0.99386498155843994 0 0 1 
1 -4.7123889803846897 0.02 1 0 
2 0.017999999999999999 0.027658633371878665 0 -1 1 0 0.0030000000000000001
1 0.99386498155843672 0 0 1 
1 0 0.25865863337187867 1 0 
1 -0.23100000000000001 0.014999999999999999 1 0 
1 -0.23100000000000001 0.014999999999999999 1 0 
2 0 0 1 0 -0 1 0.029999999999999999
2 0 0 1 0 -0 1 0.029999999999999999
1 0 0 0 1 
1 0.57693134523645673 0 0 1 
1 -5.2893203256211461 0.02 1 0 
2 0.027658633371878665 0.017999999999999999 0 -1 1 0 0.0030000000000000001
1 6.2831853071795862 -0 0 1 
1 0 -0 0 1 
1 0 0.079240440752750579 1 0 
2 0 0 1 0 -0 1 0.035000000000000003
1 0 0 1 0 
2 0 0 1 0 -0 1 0.035000000000000003
1 6.2831853071795862 -0 0 1 
1 0 -0 0 1 
1 0 0.079240440752750579 1 0 
2 0 0 1 0 -0 1 0.035000000000000003
1 0 0 1 0 
2 0 0 1 0 -0 1 0.035000000000000003
Curves 114
2 0 0 -0.01 0 0 1 1 0 -0 -0 1 0 0.25
2 0 0 -0.01 0 0 1 1 0 -0 -0 1 0 0.23000000000000001
8 0 1
7 0 0  5 10 3  -0.2247312775330397 -0.048947450376581512 -0.01  -0.22487117351219513 -0.048305149258229992 -0.01  -0.2248352712330581 -0.047624145784392398 -0.01  -0.22460864397390759 -0.046969848850835494 -0.01  -0.22421568581103446 -0.046412532359514848 -0.01  -0.22319309664841575 -0.045569392911572186 -0.01  -0.22255917648423329 -0.045287614051599034 -0.01  -0.22186055633002694 -0.045194270475386024 -0.01  -0.22117487525945215 -0.045299788362591832 -0.01  -0.22056603773584907 -0.045574533369499605 -0.01 
 0 6 0.49600162302127093 4 1 6
8 6.2038068193474318 7.8539816339744828
2 -0.017999999999999999 -0.2262852182534246 -0.01 0 0 1 0 -1 0 1 0 -0 0.0030000000000000001
2 -0.20000000000000001 0 -0.01 0 0 1 1 0 -0 -0 1 0 0.050000000000000003
1 -0.014999999999999999 -0.23100000000000001 -0.01 -0 1 0 
8 1.9173119898187743 3.1415926535897931
2 -0.15015022567754194 -0.017999999999999999 -0.01 -0 -0 -1 0 -1 0 -1 0 0 0.0030000000000000001
8 1.5707963267949001 2.5646613083533345
2 -0.017999999999999999 -0.027658633371878665 -0.01 0 0 1 0 -1 0 1 0 -0 0.0030000000000000001
1 -0.23100000000000001 -0.014999999999999999 -0.01 1 0 -0 
2 0 0 -0.01 0 0 1 1 0 -0 -0 1 0 0.029999999999999999
8 2.1477276720313574 3.1415926535897896
2 -0.027658633371878665 -0.017999999999999999 -0.01 0 0 1 0 -1 0 1 0 -0 0.0030000000000000001
2 -0.20000000000000001 0 -0.010000000000000002 0 0 1 1 0 -0 -0 1 0 0.035000000000000003
8 6.2038068193474611 7.8539816339744828
2 0.017999999999999999 -0.2262852182534246 -0.01 -0 -0 -1 0 -1 0 -1 0 0 0.0030000000000000001
8 0 1
7 0 0  5 10 3  0.22473127753303962 -0.048947450376581575 -0.01  0.22487117351219504 -0.048305149258230075 -0.01  0.22483527123305791 -0.047624145784392433 -0.01  0.22460864397390798 -0.046969848850835619 -0.01  0.2242156858110344 -0.046412532359514931 -0.01  0.22319309664841566 -0.045569392911572235 -0.01  0.22255917648423329 -0.045287614051599118 -0.01  0.2218605563300268 -0.045194270475386079 -0.01  0.22117487525945209 -0.045299788362591895 -0.01  0.22056603773584899 -0.045574533369499674 -0.01 
 0 6 0.4960016230212696 4 1 6
1 0.014999999999999999 -0.23100000000000001 -0.01 -0 1 0 
2 0.20000000000000001 0 -0.01 0 0 1 1 0 -0 -0 1 0 0.050000000000000003
8 1.5707963267949001 2.5646613083533323
2 0.017999999999999999 -0.027658633371878665 -0.01 -0 -0 -1 0 -1 0 -1 0 0 0.0030000000000000001
8 1.9173119898187874 3.1415926535897838
2 0.15015022567754194 -0.017999999999999999 -0.01 0 0 1 0 -1 0 1 0 -0 0.0030000000000000001
8 3.1415926535897967 4.1354576351482324
2 0.027658633371878665 -0.017999999999999999 -0.01 0 0 1 0 -1 0 1 0 -0 0.0030000000000000001
2 0 0 -0.01 0 0 1 1 0 -0 -0 1 0 0.0060000000000000001
2 0.20000000000000001 0 -0.010000000000000002 0 0 1 1 0 -0 -0 1 0 0.035000000000000003
8 3.0622141657576569 4.7123889803846897
2 -0.017999999999999999 0.2262852182534246 -0.01 -0 -0 -1 0 -1 0 -1 0 0 0.0030000000000000001
8 0 1
7 0 0  5 10 3  -0.2247312775330397 0.048947450376581554 -0.01  -0.22487117351219513 0.04830514925823004 -0.01  -0.2248352712330581 0.047624145784392453 -0.01  -0.22460864397390759 0.046969848850835536 -0.01  -0.22421568581103446 0.046412532359514889 -0.01  -0.22319309664841575 0.045569392911572221 -0.01  -0.22255917648423335 0.04528761405159909 -0.01  -0.22186055633002685 0.045194270475386086 -0.01  -0.2211748752594522 0.04529978836259186 -0.01  -0.22056603773584907 0.045574533369499654 -0.01 
 0 6 0.49600162302126183 4 1 6
8 4.7123889803846932 5.7062539619431307
2 -0.017999999999999999 0.027658633371878665 -0.01 -0 -0 -1 0 -1 0 -1 0 0 0.0030000000000000001
8 5.0589046434085736 6.2831853071795862
2 -0.15015022567754194 0.017999999999999999 -0.01 0 0 1 0 -1 0 1 0 -0 0.0030000000000000001
1 -0.23100000000000001 0.014999999999999999 -0.01 1 0 -0 
8 3.469446951953615e-15 0.99386498155843805
2 -0.027658633371878665 0.017999999999999999 -0.01 0 0 1 0 -1 0 1 0 -0 0.0030000000000000001
8 0 1
7 0 0  5 10 3  0.22473127753303962 0.048947450376581519 -0.01  0.22487117351219504 0.048305149258229998 -0.01  0.22483527123305805 0.047624145784392447 -0.01  0.22460864397390748 0.04696984885083548 -0.01  0.2242156858110344 0.046412532359514876 -0.01  0.22319309664841566 0.0455693929115722 -0.01  0.22255917648423326 0.045287614051599034 -0.01  0.22186055633002683 0.045194270475386066 -0.01  0.22117487525945215 0.045299788362591832 -0.01  0.22056603773584901 0.045574533369499619 -0.01 
 0 6 0.4960016230212746 4 1 6
8 3.0622141657576658 4.7123889803846897
2 0.017999999999999999 0.2262852182534246 -0.01 0 0 1 0 -1 0 1 0 -0 0.0030000000000000001
8 5.0589046434085763 6.2831853071795676
2 0.15015022567754194 0.017999999999999999 -0.01 -0 -0 -1 0 -1 0 -1 0 0 0.0030000000000000001
8 4.7123889803846932 5.7062539619431307
2 0.017999999999999999 0.027658633371878665 -0.01 0 0 1 0 -1 0 1 0 -0 0.0030000000000000001
8 5.2893203256211461 6.2831853071795827
2 0.027658633371878665 0.017999999999999999 -0.01 0 0 1 0 -1 0 1 0 -0 0.0030000000000000001
1 0.25 -6.123233995736766e-17 -0.01 0 0 1 
2 6.9388939039072284e-18 -6.9388939039072284e-18 0.01 -0 0 -1 1 -2.1717378421384173e-16 -0 -2.1717378421384173e-16 -1 0 0.25
7 0 0  2 5 4  -0.22473127753303965 -0.048947450376581506 -0.011224  -0.22473127753303965 -0.048947450376581506 -0.010612  -0.22473127753303965 -0.048947450376581506 1.6316230413194711e-18  -0.22473127753303965 -0.048947450376581506 0.010612000000000003  -0.22473127753303965 -0.048947450376581506 0.011224000000000003 
 -0.0012240000000000211 3 -2.1595952023195641e-17 1 0.019999999999999969 1 0.021223999999999969 3
1 -0.018237885462555125 -0.22927577179862402 -0.01 0 0 1 
2 0 0 0.01 0 0 1 1 0 -0 -0 1 0 0.23000000000000001
7 0 0  2 5 4  -0.22056603773584904 -0.045574533369499598 -0.011224000000000008  -0.22056603773584904 -0.045574533369499598 -0.01061200000000001  -0.22056603773584904 -0.045574533369499598 -1.3052984330555769e-17  -0.22056603773584904 -0.045574533369499598 0.010611999999999983  -0.22056603773584904 -0.045574533369499598 0.011223999999999981 
 -0.0012240000000000211 3 -2.1595952023195641e-17 1 0.019999999999999969 1 0.021223999999999969 3
8 0 1
7 0 0  5 10 3  -0.2247312775330397 -0.048947450376581512 0.01  -0.22487117351219513 -0.048305149258229985 0.01  -0.2248352712330581 -0.047624145784392405 0.01  -0.22460864397390759 -0.046969848850835487 0.01  -0.22421568581103446 -0.046412532359514848 0.01  -0.22319309664841575 -0.045569392911572165 0.01  -0.22255917648423337 -0.045287614051599062 0.01  -0.22186055633002688 -0.045194270475386017 0.01  -0.22117487525945217 -0.045299788362591818 0.01  -0.22056603773584907 -0.045574533369499605 0.01 
 0 6 0.49600162302125905 4 1 6
1 -0.014999999999999999 -0.2262852182534246 -0.01 0 0 1 
8 6.2038068193474318 7.8539816339744828
2 -0.017999999999999999 -0.2262852182534246 0.01 0 0 1 0 -1 0 1 0 -0 0.0030000000000000001
1 -0.152971911016549 -0.016981132075471719 -0.01 0 0 1 
2 -0.20000000000000001 0 0.01 0 0 1 1 0 -0 -0 1 0 0.050000000000000003
1 -0.014999999999999999 -0.23100000000000001 0.01 -0 1 0 
1 -0.014999999999999999 -0.027658633371878655 -0.01 0 0 1 
1 -0.15015022567754194 -0.014999999999999999 -0.01 0 0 1 
8 1.9173119898187743 3.1415926535897931
2 -0.15015022567754194 -0.017999999999999999 0.01 -0 -0 -1 0 -1 0 -1 0 0 0.0030000000000000001
1 -0.016363636363636358 -0.025144212156253332 -0.01 0 0 1 
8 1.5707963267949001 2.5646613083533345
2 -0.017999999999999999 -0.027658633371878665 0.01 0 0 1 0 -1 0 1 0 -0 0.0030000000000000001
1 -0.027658633371878655 -0.014999999999999999 -0.01 0 0 1 
1 -0.23100000000000001 -0.014999999999999999 0.01 1 0 -0 
1 -0.025144212156253336 -0.016363636363636348 -0.01 0 0 1 
2 0 0 0.01 0 0 1 1 0 -0 -0 1 0 0.029999999999999999
8 2.1477276720313574 3.1415926535897896
2 -0.027658633371878665 -0.017999999999999999 0.01 0 0 1 0 -1 0 1 0 -0 0.0030000000000000001
2 -0.20000000000000001 0 0.010000000000000002 0 0 1 1 0 -0 -0 1 0 0.035000000000000003
1 -0.16500000000000001 -8.572527594031472e-18 -0.03962022037637529 0 0 1 
1 0.018237885462555038 -0.22927577179862405 -0.01 0 0 1 
7 1 0  2 5 4  0.22473127753303965 -0.048947450376581589 -0.011224000000000008  1.0631888812834844 0.22473127753303962 -0.048947450376581582 -0.010612000000000009  1.0631888812834844 0.22473127753303965 -0.048947450376581589 8.1581152065973541e-18  1.063188881283486 0.22473127753303968 -0.048947450376581589 0.010611999999999995  1.0631888812834875 0.22473127753303973 -0.048947450376581603 0.011224  1.0631888812834873
 -0.001224000000000018 3 -2.1595952023195641e-17 1 0.019999999999999969 1 0.021223999999999969 3
1 0.014999999999999999 -0.2262852182534246 -0.01 0 0 1 
8 6.2038068193474611 7.8539816339744828
2 0.017999999999999999 -0.2262852182534246 0.01 -0 -0 -1 0 -1 0 -1 0 0 0.0030000000000000001
7 1 0  2 5 4  0.22056603773584904 -0.045574533369499681 -0.011224000000000019  1.0631888812834844 0.22056603773584901 -0.045574533369499674 -0.010612000000000019  1.0631888812834844 0.22056603773584907 -0.045574533369499681 -6.5264921652778828e-18  1.063188881283486 0.22056603773584907 -0.045574533369499688 0.010611999999999974  1.0631888812834875 0.2205660377358491 -0.045574533369499695 0.011223999999999975  1.0631888812834873
 -0.001224000000000018 3 -2.1595952023195641e-17 1 0.019999999999999969 1 0.021223999999999969 3
8 0 1
7 0 0  5 10 3  0.22473127753303965 -0.048947450376581575 0.01  0.22487117351219507 -0.048305149258230061 0.01  0.22483527123305808 -0.047624145784392474 0.01  0.22460864397390753 -0.046969848850835577 0.01  0.2242156858110344 -0.046412532359514917 0.01  0.22319309664841572 -0.045569392911572276 0.01  0.22255917648423323 -0.045287614051599111 0.01  0.22186055633002685 -0.045194270475386079 0.01  0.22117487525945215 -0.045299788362591922 0.01  0.2205660377358491 -0.045574533369499681 0.01 
 0 6 0.49600162302127815 4 1 6
1 0.014999999999999999 -0.23100000000000001 0.01 -0 1 0 
1 0.014999999999999999 -0.027658633371878655 -0.01 0 0 1 
1 0.152971911016549 -0.01698113207547168 -0.01 0 0 1 
2 0.20000000000000001 0 0.01 0 0 1 1 0 -0 -0 1 0 0.050000000000000003
1 0.016363636363636348 -0.025144212156253336 -0.01 0 0 1 
8 1.5707963267949001 2.5646613083533323
2 0.017999999999999999 -0.027658633371878665 0.01 -0 -0 -1 0 -1 0 -1 0 0 0.0030000000000000001
1 0.15015022567754197 -0.014999999999999999 -0.01 0 0 1 
8 1.9173119898187874 3.1415926535897838
2 0.15015022567754194 -0.017999999999999999 0.01 0 0 1 0 -1 0 1 0 -0 0.0030000000000000001
1 0.025144212156253329 -0.016363636363636358 -0.01 0 0 1 
1 0.027658633371878655 -0.014999999999999999 -0.01 0 0 1 
8 3.1415926535897967 4.1354576351482324
2 0.027658633371878665 -0.017999999999999999 0.01 0 0 1 0 -1 0 1 0 -0 0.0030000000000000001
2 0 0 0.0099999999999999985 0 0 1 1 0 -0 -0 1 0 0.0060000000000000001
1 0.0060000000000000001 -1.4695761589768239e-18 -0.010999999999999999 0 0 1 
2 0.20000000000000001 0 0.010000000000000002 0 0 1 1 0 -0 -0 1 0 0.035000000000000003
1 0.23500000000000001 -8.5725275940314781e-18 -0.03962022037637529 0 0 1 
1 -0.018237885462555069 0.22927577179862402 -0.01 0 0 1 
7 0 0  2 5 4  -0.22473127753303965 0.048947450376581561 -0.011224  -0.22473127753303965 0.048947450376581561 -0.010612  -0.22473127753303965 0.048947450376581561 1.6316230413194711e-18  -0.22473127753303965 0.048947450376581561 0.010612000000000003  -0.22473127753303965 0.048947450376581561 0.011224000000000003 
 -0.0012240000000000211 3 -2.1595952023195641e-17 1 0.019999999999999969 1 0.021223999999999969 3
1 -0.014999999999999999 0.2262852182534246 -0.01 0 0 1 
8 3.0622141657576569 4.7123889803846897
2 -0.017999999999999999 0.2262852182534246 0.01 -0 -0 -1 0 -1 0 -1 0 0 0.0030000000000000001
7 0 0  2 5 4  -0.22056603773584904 0.045574533369499654 -0.011224000000000008  -0.22056603773584904 0.045574533369499654 -0.01061200000000001  -0.22056603773584904 0.045574533369499654 -1.3052984330555769e-17  -0.22056603773584904 0.045574533369499654 0.010611999999999983  -0.22056603773584904 0.045574533369499654 0.011223999999999981 
 -0.0012240000000000211 3 -2.1595952023195641e-17 1 0.019999999999999969 1 0.021223999999999969 3
8 0 1
7 0 0  5 10 3  -0.2247312775330397 0.048947450376581554 0.01  -0.22487117351219513 0.048305149258230033 0.01  -0.2248352712330581 0.047624145784392453 0.01  -0.22460864397390759 0.046969848850835542 0.01  -0.22421568581103446 0.046412532359514889 0.01  -0.22319309664841572 0.045569392911572207 0.01  -0.2225591764842334 0.045287614051599111 0.01  -0.22186055633002685 0.045194270475386072 0.01  -0.2211748752594522 0.04529978836259186 0.01  -0.22056603773584907 0.045574533369499654 0.01 
 0 6 0.49600162302125295 4 1 6
1 -0.014999999999999999 0.027658633371878655 -0.01 0 0 1 
1 -0.152971911016549 0.016981132075471694 -0.01 0 0 1 
1 -0.016363636363636361 0.025144212156253329 -0.01 0 0 1 
8 4.7123889803846932 5.7062539619431307
2 -0.017999999999999999 0.027658633371878665 0.01 -0 -0 -1 0 -1 0 -1 0 0 0.0030000000000000001
1 -0.15015022567754194 0.014999999999999999 -0.01 0 0 1 
8 5.0589046434085736 6.2831853071795862
2 -0.15015022567754194 0.017999999999999999 0.01 0 0 1 0 -1 0 1 0 -0 0.0030000000000000001
1 -0.025144212156253332 0.016363636363636355 -0.01 0 0 1 
1 -0.027658633371878655 0.014999999999999999 -0.01 0 0 1 
1 -0.23100000000000001 0.014999999999999999 0.01 1 0 -0 
8 3.469446951953615e-15 0.99386498155843805
2 -0.027658633371878665 0.017999999999999999 0.01 0 0 1 0 -1 0 1 0 -0 0.0030000000000000001
7 1 0  2 5 4  0.22473127753303965 0.048947450376581519 -0.011224000000000005  1.0631888812834855 0.22473127753303965 0.048947450376581519 -0.010612000000000005  1.0631888812834855 0.22473127753303965 0.048947450376581519 4.89486912395841e-18  1.0631888812834864 0.22473127753303965 0.048947450376581526 0.010611999999999998  1.0631888812834873 0.22473127753303962 0.048947450376581519 0.011223999999999998  1.0631888812834873
 -0.0012240000000000211 3 -2.1595952023195641e-17 1 0.019999999999999969 1 0.021223999999999969 3
1 0.018237885462555045 0.22927577179862405 -0.01 0 0 1 
7 1 0  2 5 4  0.22056603773584904 0.045574533369499612 -0.011224000000000015  1.0631888812834855 0.22056603773584904 0.045574533369499612 -0.010612000000000016  1.0631888812834855 0.22056603773584904 0.045574533369499612 -9.78973824791682e-18  1.0631888812834864 0.22056603773584904 0.045574533369499612 0.010611999999999977  1.0631888812834873 0.22056603773584901 0.045574533369499605 0.011223999999999981  1.0631888812834873
 -0.0012240000000000211 3 -2.1595952023195641e-17 1 0.019999999999999969 1 0.021223999999999969 3
8 0 1
7 0 0  5 10 3  0.22473127753303965 0.048947450376581526 0.01  0.22487117351219507 0.048305149258230012 0.01  0.22483527123305802 0.047624145784392412 0.01  0.22460864397390756 0.046969848850835515 0.01  0.22421568581103443 0.046412532359514869 0.01  0.22319309664841569 0.045569392911572193 0.01  0.22255917648423326 0.045287614051599055 0.01  0.22186055633002683 0.045194270475386059 0.01  0.22117487525945215 0.045299788362591825 0.01  0.22056603773584904 0.045574533369499612 0.01 
 0 6 0.49600162302126705 4 1 6
1 0.014999999999999999 0.2262852182534246 -0.01 0 0 1 
8 3.0622141657576658 4.7123889803846897
2 0.017999999999999999 0.2262852182534246 0.01 0 0 1 0 -1 0 1 0 -0 0.0030000000000000001
1 0.152971911016549 0.016981132075471691 -0.01 0 0 1 
1 0.014999999999999999 0.027658633371878655 -0.01 0 0 1 
1 0.15015022567754197 0.014999999999999999 -0.01 0 0 1 
8 5.0589046434085763 6.2831853071795676
2 0.15015022567754194 0.017999999999999999 0.01 -0 -0 -1 0 -1 0 -1 0 0 0.0030000000000000001
1 0.016363636363636361 0.025144212156253329 -0.01 0 0 1 
8 4.7123889803846932 5.7062539619431307
2 0.017999999999999999 0.027658633371878665 0.01 0 0 1 0 -1 0 1 0 -0 0.0030000000000000001
1 0.027658633371878655 0.014999999999999999 -0.01 0 0 1 
1 0.025144212156253329 0.016363636363636361 -0.01 0 0 1 
8 5.2893203256211461 6.2831853071795827
2 0.027658633371878665 0.017999999999999999 0.01 0 0 1 0 -1 0 1 0 -0 0.0030000000000000001
1 0.23500000000000001 -8.5725275940314781e-18 -0.03962022037637529 0 0 1 
2 0.20000000000000001 0 0.03962022037637529 0 0 1 1 0 -0 -0 1 0 0.035000000000000003
2 0.20000000000000001 0 -0.03962022037637529 0 0 1 1 0 -0 -0 1 0 0.035000000000000003
1 -0.16500000000000001 -8.572527594031472e-18 -0.03962022037637529 0 0 1 
2 -0.20000000000000001 0 0.03962022037637529 0 0 1 1 0 -0 -0 1 0 0.035000000000000003
2 -0.20000000000000001 0 -0.03962022037637529 0 0 1 1 0 -0 -0 1 0 0.035000000000000003
Polygon3D 0
PolygonOnTriangulations 0
Surfaces 54
1 0 0 -0.01 0 0 1 1 0 -0 -0 1 0 
2 0 0 -0.01 0 0 1 1 0 -0 -0 1 0 0.25
2 0 0 -0.01 0 0 1 1 0 -0 -0 1 0 0.23000000000000001
1 0 0 -0.01 0 0 1 1 0 -0 -0 1 0 
1 0 0 -0.01 0 0 1 1 0 -0 -0 1 0 
9 0 1 0 0 6 2 7 5 2 4 -0.22473127753303965 -0.048947450376581506 -0.011224  1.0631888812834858 -0.22473127753303965 -0.048947450376581506 -0.010612  1.0631888812834858 -0.22473127753303965 -0.048947450376581506 1.6316230413194711e-18  1.0631888812834858 -0.22473127753303965 -0.048947450376581506 0.010612000000000003  1.0631888812834858 -0.22473127753303965 -0.048947450376581506 0.011224000000000003  1.0631888812834858 
-0.22497646560807147 -0.047821724135197322 -0.011224  1.0192815992010213 -0.22497646560807147 -0.047821724135197322 -0.010612000000000002  1.0192815992010213 -0.22497646560807147 -0.047821724135197322 3.4038159372966119e-18  1.0192815992010213 -0.22497646560807147 -0.047821724135197322 0.010612000000000009  1.0192815992010213 -0.22497646560807147 -0.047821724135197322 0.011224000000000008  1.0192815992010213 
-0.22469929276664324 -0.046646345539556842 -0.011223999999999998  0.99592433277948089 -0.22469929276664324 -0.046646345539556842 -0.010612  0.99592433277948089 -0.22469929276664324 -0.046646345539556842 3.4836451302187681e-18  0.99592433277948089 -0.22469929276664324 -0.046646345539556842 0.010612000000000007  0.99592433277948089 -0.22469929276664324 -0.046646345539556842 0.011224000000000005  0.99592433277948089 
-0.22393109748671347 -0.045677297551787177 -0.011224000000000003  0.98822565318181721 -0.22393109748671347 -0.045677297551787177 -0.010612000000000003  0.98822565318181721 -0.22393109748671347 -0.045677297551787177 -1.7553920710229191e-18  0.98822565318181721 -0.22393109748671347 -0.045677297551787177 0.010612  0.98822565318181721 -0.22393109748671347 -0.045677297551787177 0.011224  0.98822565318181721 
-0.22282350432936798 -0.045127374476704542 -0.011224000000000005  0.99592433277948089 -0.22282350432936798 -0.045127374476704542 -0.010612000000000007  0.99592433277948089 -0.22282350432936798 -0.045127374476704542 -5.2254676953281517e-18  0.99592433277948089 -0.22282350432936798 -0.045127374476704542 0.010611999999999996  0.99592433277948089 -0.22282350432936798 -0.045127374476704542 0.011223999999999996  0.99592433277948089 
-0.22161618288740045 -0.045100643167710307 -0.011224000000000008  1.0192815992010213 -0.22161618288740045 -0.045100643167710307 -0.01061200000000001  1.0192815992010213 -0.22161618288740045 -0.045100643167710307 -1.0211447811889836e-17  1.0192815992010213 -0.22161618288740045 -0.045100643167710307 0.010611999999999989  1.0192815992010213 -0.22161618288740045 -0.045100643167710307 0.011223999999999991  1.0192815992010213 
-0.22056603773584904 -0.045574533369499598 -0.011224000000000008  1.0631888812834858 -0.22056603773584904 -0.045574533369499598 -0.01061200000000001  1.0631888812834858 -0.22056603773584904 -0.045574533369499598 -1.3052984330555769e-17  1.0631888812834858 -0.22056603773584904 -0.045574533369499598 0.010611999999999983  1.0631888812834858 -0.22056603773584904 -0.045574533369499598 0.011223999999999981  1.0631888812834858 

0 7
0.01999999999999999 7

-0.0012240000000000211 3
-2.1595952023195641e-17 1
0.019999999999999969 1
0.021223999999999969 3

2 -0.017999999999999999 -0.2262852182534246 -0.01 0 0 1 -0.079295154185042613 -0.99685118173314635 0 0.99685118173314635 -0.079295154185042613 0 0.0030000000000000001
2 -0.20000000000000001 0 -0.01 0 0 1 1 0 -0 -0 1 0 0.050000000000000003
1 -0.20000000000000001 0 -0.01 0 0 1 1 0 -0 -0 1 0 
1 -0.014999999999999999 -0.23100000000000001 -0.01 1 0 -0 0 0 1 0 -1 0 
1 -0.014999999999999999 -0.23100000000000001 -0.01 0 0 1 1 0 -0 -0 1 0 
2 -0.15015022567754194 -0.017999999999999999 -0.01 0 0 1 -0.94056177966902266 0.33962264150942728 0 0.33962264150942728 0.94056177966902266 -0 0.0030000000000000001
2 -0.017999999999999999 -0.027658633371878665 -0.01 0 0 1 1 0 -0 -0 1 0 0.0030000000000000001
1 -0.23100000000000001 -0.014999999999999999 -0.01 -0 1 0 0 0 1 1 0 -0 
1 -0.23100000000000001 -0.014999999999999999 -0.01 0 0 1 1 0 -0 -0 1 0 
2 0 0 -0.01 0 0 1 1 0 -0 -0 1 0 0.029999999999999999
1 0 0 -0.01 0 0 1 1 0 -0 -0 1 0 
2 -0.027658633371878665 -0.017999999999999999 -0.01 0 0 1 0.83814040520844169 0.54545454545454941 -0 -0.54545454545454941 0.83814040520844169 0 0.0030000000000000001
2 -0.20000000000000001 0 -0.03962022037637529 0 0 1 1 0 -0 -0 1 0 0.035000000000000003
2 -0.20000000000000001 0 -0.03962022037637529 0 0 1 1 0 -0 -0 1 0 0.035000000000000003
2 0.017999999999999999 -0.2262852182534246 -0.01 0 0 1 0.07929515418501315 -0.99685118173314868 0 -0.99685118173314868 -0.07929515418501315 0 0.0030000000000000001
9 1 1 0 0 6 2 7 5 2 4 0.22473127753303965 -0.048947450376581589 -0.011224000000000008  1.0631888812834844 0.22473127753303962 -0.048947450376581582 -0.010612000000000009  1.0631888812834844 0.22473127753303965 -0.048947450376581589 8.1581152065973541e-18  1.063188881283486 0.22473127753303968 -0.048947450376581589 0.010611999999999995  1.0631888812834875 0.22473127753303973 -0.048947450376581603 0.011224  1.0631888812834873 
0.22497646560807147 -0.047821724135197405 -0.011224  1.0192815992010211 0.22497646560807147 -0.047821724135197405 -0.010611999999999998  1.0192815992010211 0.22497646560807147 -0.047821724135197412 5.1057239059449181e-18  1.0192815992010213 0.22497646560807147 -0.047821724135197405 0.010612000000000005  1.0192815992010216 0.22497646560807147 -0.047821724135197405 0.011224000000000007  1.0192815992010216 
0.22469929276664324 -0.046646345539556926 -0.011223999999999998  0.995924332779481 0.22469929276664324 -0.046646345539556926 -0.010611999999999996  0.995924332779481 0.22469929276664324 -0.046646345539556926 1.741822565109384e-18  0.99592433277948089 0.22469929276664324 -0.046646345539556926 0.010612000000000003  0.99592433277948078 0.22469929276664324 -0.046646345539556926 0.011224000000000005  0.99592433277948078 
0.22393109748671347 -0.04567729755178726 -0.011224000000000001  0.98822565318181732 0.22393109748671347 -0.04567729755178726 -0.010612000000000002  0.98822565318181732 0.22393109748671344 -0.04567729755178726 -1.7553920710229191e-18  0.9882256531818171 0.22393109748671347 -0.04567729755178726 0.010612000000000003  0.98822565318181688 0.22393109748671347 -0.04567729755178726 0.011224000000000003  0.98822565318181688 
0.22282350432936798 -0.045127374476704618 -0.011224000000000005  0.99592433277948089 0.22282350432936798 -0.045127374476704618 -0.010612000000000005  0.99592433277948089 0.22282350432936798 -0.045127374476704618 -5.2254676953281517e-18  0.99592433277948089 0.22282350432936798 -0.045127374476704625 0.010611999999999996  0.99592433277948089 0.22282350432936798 -0.045127374476704625 0.011223999999999996  0.99592433277948089 
0.22161618288740045 -0.04510064316771039 -0.011224000000000012  1.0192815992010211 0.22161618288740045 -0.04510064316771039 -0.01061200000000001  1.0192815992010211 0.22161618288740045 -0.045100643167710397 -8.5095398432415297e-18  1.0192815992010213 0.22161618288740045 -0.04510064316771039 0.010611999999999989  1.0192815992010216 0.22161618288740045 -0.04510064316771039 0.011223999999999991  1.0192815992010216 
0.22056603773584904 -0.045574533369499681 -0.011224000000000019  1.0631888812834844 0.22056603773584901 -0.045574533369499674 -0.010612000000000019  1.0631888812834844 0.22056603773584907 -0.045574533369499681 -6.5264921652778828e-18  1.063188881283486 0.22056603773584907 -0.045574533369499688 0.010611999999999974  1.0631888812834875 0.2205660377358491 -0.045574533369499695 0.011223999999999975  1.0631888812834873 

0 7
0.01999999999999999 7

-0.001224000000000018 3
-2.1595952023195641e-17 1
0.019999999999999969 1
0.021223999999999969 3

1 0.014999999999999999 -0.23100000000000001 -0.01 1 0 -0 0 0 1 0 -1 0 
2 0.20000000000000001 0 -0.01 0 0 1 1 0 -0 -0 1 0 0.050000000000000003
1 0.20000000000000001 0 -0.01 0 0 1 1 0 -0 -0 1 0 
2 0.017999999999999999 -0.027658633371878665 -0.01 0 0 1 -1 -0 0 -0 1 -0 0.0030000000000000001
2 0.15015022567754194 -0.017999999999999999 -0.01 0 0 1 0.94056177966901855 0.33962264150943855 -0 -0.33962264150943855 0.94056177966901855 0 0.0030000000000000001
2 0.027658633371878665 -0.017999999999999999 -0.01 0 0 1 -0 1 0 -1 -0 0 0.0030000000000000001
2 0 0 -0.010999999999999999 0 0 1 1 0 -0 -0 1 0 0.0060000000000000001
2 0.20000000000000001 0 -0.03962022037637529 0 0 1 1 0 -0 -0 1 0 0.035000000000000003
2 0.20000000000000001 0 -0.03962022037637529 0 0 1 1 0 -0 -0 1 0 0.035000000000000003
2 -0.017999999999999999 0.2262852182534246 -0.01 0 0 1 -0.079295154185024225 0.9968511817331478 0 0.9968511817331478 0.079295154185024225 -0 0.0030000000000000001
9 0 1 0 0 6 2 7 5 2 4 -0.22473127753303965 0.048947450376581561 -0.011224  1.0631888812834858 -0.22473127753303965 0.048947450376581561 -0.010612  1.0631888812834858 -0.22473127753303965 0.048947450376581561 1.6316230413194711e-18  1.0631888812834858 -0.22473127753303965 0.048947450376581561 0.010612000000000003  1.0631888812834858 -0.22473127753303965 0.048947450376581561 0.011224000000000003  1.0631888812834858 
-0.22497646560807147 0.047821724135197377 -0.011224  1.0192815992010213 -0.22497646560807147 0.047821724135197377 -0.010612000000000002  1.0192815992010213 -0.22497646560807147 0.047821724135197377 3.4038159372966119e-18  1.0192815992010213 -0.22497646560807147 0.047821724135197377 0.010612000000000009  1.0192815992010213 -0.22497646560807147 0.047821724135197377 0.011224000000000008  1.0192815992010213 
-0.22469929276664324 0.046646345539556898 -0.011223999999999998  0.99592433277948089 -0.22469929276664324 0.046646345539556898 -0.010612  0.99592433277948089 -0.22469929276664324 0.046646345539556898 3.4836451302187681e-18  0.99592433277948089 -0.22469929276664324 0.046646345539556898 0.010612000000000007  0.99592433277948089 -0.22469929276664324 0.046646345539556898 0.011224000000000005  0.99592433277948089 
-0.22393109748671347 0.045677297551787233 -0.011224000000000003  0.98822565318181721 -0.22393109748671347 0.045677297551787233 -0.010612000000000003  0.98822565318181721 -0.22393109748671347 0.045677297551787233 -1.7553920710229191e-18  0.98822565318181721 -0.22393109748671347 0.045677297551787233 0.010612  0.98822565318181721 -0.22393109748671347 0.045677297551787233 0.011224  0.98822565318181721 
-0.22282350432936798 0.045127374476704597 -0.011224000000000005  0.99592433277948089 -0.22282350432936798 0.045127374476704597 -0.010612000000000007  0.99592433277948089 -0.22282350432936798 0.045127374476704597 -5.2254676953281517e-18  0.99592433277948089 -0.22282350432936798 0.045127374476704597 0.010611999999999996  0.99592433277948089 -0.22282350432936798 0.045127374476704597 0.011223999999999996  0.99592433277948089 
-0.22161618288740045 0.045100643167710362 -0.011224000000000008  1.0192815992010213 -0.22161618288740045 0.045100643167710362 -0.01061200000000001  1.0192815992010213 -0.22161618288740045 0.045100643167710362 -1.0211447811889836e-17  1.0192815992010213 -0.22161618288740045 0.045100643167710362 0.010611999999999989  1.0192815992010213 -0.22161618288740045 0.045100643167710362 0.011223999999999991  1.0192815992010213 
-0.22056603773584904 0.045574533369499654 -0.011224000000000008  1.0631888812834858 -0.22056603773584904 0.045574533369499654 -0.01061200000000001  1.0631888812834858 -0.22056603773584904 0.045574533369499654 -1.3052984330555769e-17  1.0631888812834858 -0.22056603773584904 0.045574533369499654 0.010611999999999983  1.0631888812834858 -0.22056603773584904 0.045574533369499654 0.011223999999999981  1.0631888812834858 

0 7
0.01999999999999999 7

-0.0012240000000000211 3
-2.1595952023195641e-17 1
0.019999999999999969 1
0.021223999999999969 3

2 -0.017999999999999999 0.027658633371878665 -0.01 0 0 1 1 0 -0 0 -1 -0 0.0030000000000000001
2 -0.15015022567754194 0.017999999999999999 -0.01 0 0 1 -0.9405617796690201 -0.33962264150943444 0 0.33962264150943444 -0.9405617796690201 0 0.0030000000000000001
1 -0.23100000000000001 0.014999999999999999 -0.01 -0 1 0 0 0 1 1 0 -0 
2 -0.027658633371878665 0.017999999999999999 -0.01 0 0 1 0 -1 0 1 0 -0 0.0030000000000000001
9 1 1 0 0 6 2 7 5 2 4 0.22473127753303965 0.048947450376581519 -0.011224000000000005  1.0631888812834855 0.22473127753303965 0.048947450376581519 -0.010612000000000005  1.0631888812834855 0.22473127753303965 0.048947450376581519 4.89486912395841e-18  1.0631888812834864 0.22473127753303965 0.048947450376581526 0.010611999999999998  1.0631888812834873 0.22473127753303962 0.048947450376581519 0.011223999999999998  1.0631888812834873 
0.22497646560807147 0.047821724135197335 -0.011224  1.0192815992010211 0.22497646560807147 0.047821724135197335 -0.010612  1.0192815992010211 0.22497646560807147 0.047821724135197342 5.1057239059449181e-18  1.0192815992010213 0.22497646560807147 0.047821724135197342 0.010612000000000005  1.0192815992010216 0.22497646560807147 0.047821724135197342 0.011224000000000007  1.0192815992010216 
0.22469929276664324 0.046646345539556856 -0.011223999999999998  0.995924332779481 0.22469929276664324 0.046646345539556856 -0.010611999999999998  0.995924332779481 0.22469929276664324 0.046646345539556863 1.741822565109384e-18  0.99592433277948089 0.22469929276664324 0.046646345539556863 0.010612000000000003  0.99592433277948078 0.22469929276664324 0.046646345539556863 0.011224000000000005  0.99592433277948078 
0.22393109748671347 0.045677297551787191 -0.011224000000000003  0.98822565318181743 0.22393109748671347 0.045677297551787191 -0.010612000000000003  0.98822565318181743 0.22393109748671347 0.045677297551787198 -3.5107841420458383e-18  0.98822565318181721 0.22393109748671347 0.045677297551787198 0.010612000000000002  0.98822565318181699 0.22393109748671347 0.045677297551787198 0.011224000000000001  0.98822565318181699 
0.22282350432936798 0.045127374476704556 -0.011224000000000005  0.99592433277948089 0.22282350432936798 0.045127374476704556 -0.010612000000000007  0.99592433277948089 0.22282350432936798 0.045127374476704563 -5.2254676953281517e-18  0.99592433277948089 0.22282350432936798 0.045127374476704563 0.010611999999999996  0.99592433277948089 0.22282350432936798 0.045127374476704563 0.011223999999999996  0.99592433277948089 
0.22161618288740045 0.045100643167710321 -0.011224000000000012  1.0192815992010211 0.22161618288740045 0.045100643167710321 -0.010612000000000012  1.0192815992010211 0.22161618288740045 0.045100643167710328 -8.5095398432415297e-18  1.0192815992010213 0.22161618288740045 0.045100643167710328 0.010611999999999989  1.0192815992010216 0.22161618288740045 0.045100643167710328 0.011223999999999991  1.0192815992010216 
0.22056603773584904 0.045574533369499612 -0.011224000000000015  1.0631888812834855 0.22056603773584904 0.045574533369499612 -0.010612000000000016  1.0631888812834855 0.22056603773584904 0.045574533369499612 -9.78973824791682e-18  1.0631888812834864 0.22056603773584904 0.045574533369499612 0.010611999999999977  1.0631888812834873 0.22056603773584901 0.045574533369499605 0.011223999999999981  1.0631888812834873 

0 7
0.01999999999999999 7

-0.0012240000000000211 3
-2.1595952023195641e-17 1
0.019999999999999969 1
0.021223999999999969 3

2 0.017999999999999999 0.2262852182534246 -0.01 0 0 1 0.079295154185015454 0.99685118173314857 -0 -0.99685118173314857 0.079295154185015454 0 0.0030000000000000001
2 0.15015022567754194 0.017999999999999999 -0.01 0 0 1 0.94056177966901966 -0.3396226415094355 0 -0.3396226415094355 -0.94056177966901966 0 0.0030000000000000001
2 0.017999999999999999 0.027658633371878665 -0.01 0 0 1 -1 -0 0 0 -1 0 0.0030000000000000001
2 0.027658633371878665 0.017999999999999999 -0.01 0 0 1 -0.83814040520844457 -0.54545454545454519 0 0.54545454545454519 -0.83814040520844457 0 0.0030000000000000001
1 0 0 0.01 0 0 1 1 0 -0 -0 1 0 
1 0 0 0.01 0 0 1 1 0 -0 -0 1 0 
1 0 0 0.01 0 0 1 1 0 -0 -0 1 0 
1 -0.20000000000000001 0 0.01 0 0 1 1 0 -0 -0 1 0 
1 -0.014999999999999999 -0.23100000000000001 0.01 0 0 1 1 0 -0 -0 1 0 
1 -0.23100000000000001 -0.014999999999999999 0.01 0 0 1 1 0 -0 -0 1 0 
1 0 0 0.01 0 0 1 1 0 -0 -0 1 0 
1 0.20000000000000001 0 0.01 0 0 1 1 0 -0 -0 1 0 
1 0.20000000000000001 0 0.03962022037637529 0 0 1 1 0 -0 -0 1 0 
1 0.20000000000000001 0 -0.03962022037637529 0 0 1 1 0 -0 -0 1 0 
1 -0.20000000000000001 0 0.03962022037637529 0 0 1 1 0 -0 -0 1 0 
1 -0.20000000000000001 0 -0.03962022037637529 0 0 1 1 0 -0 -0 1 0 
Triangulations 0

TShapes 361
Ve
3.57088938866218e-06
0.25 -4.49037159687363e-17 -0.01
0 0

0101101
*
Ed
 1e-07 1 1 0
1  1 0 0 6.28318530717959
2  1 2 0 0 6.28318530717959
2  2 1 0 0 6.28318530717959
0

0101000
+361 0 -361 0 *
Wi

0101100
+360 0 *
Ve
1e-07
-0.22473127753304 -0.0489474503765815 -0.01
0 0

0101101
*
Ve
1e-07
-0.0182378854625551 -0.229275771798624 -0.01
0 0

0101101
*
Ed
 1e-07 1 1 0
1  2 0 3.35604771205895 4.63301049255256
2  3 3 0 3.35604771205895 4.63301049255256
2  4 4 0 3.35604771205895 4.63301049255256
2  5 5 0 3.35604771205895 4.63301049255256
2  6 1 0 3.35604771205895 4.63301049255256
0

0101000
+358 0 -357 0 *
Ve
1e-07
-0.220566037735849 -0.0455745333694996 -0.01
0 0

0101101
*
Ed
 1e-07 1 1 0
1  3 0 0 1
2  7 6 0 0 1
2  8 1 0 0 1
0

0101000
+358 0 -355 0 *
Ve
1e-07
-0.015 -0.226285218253425 -0.01
0 0

0101101
*
Ed
 1e-07 1 1 0
1  4 0 6.20380681934743 7.85398163397448
2  9 7 0 6.20380681934743 7.85398163397448
2  10 1 0 6.20380681934743 7.85398163397448
0

0101000
+357 0 -353 0 *
Ve
1e-07
-0.152971911016549 -0.0169811320754717 -0.01
0 0

0101101
*
Ed
 1e-07 1 1 0
1  5 0 4.28848638591998 5.9366696441557
2  11 8 0 4.28848638591998 5.9366696441557
2  12 9 0 4.28848638591998 5.9366696441557
2  13 5 0 4.28848638591998 5.9366696441557
2  14 1 0 4.28848638591998 5.9366696441557
0

0101000
+355 0 -351 0 *
Ve
1e-07
-0.015 -0.0276586333718787 -0.01
0 0

0101101
*
Ed
 1e-07 1 1 0
1  6 0 0.00471478174657541 0.203341366628121
2  15 10 0 0.00471478174657541 0.203341366628121
2  16 11 0 0.00471478174657541 0.203341366628121
2  17 5 0 0.00471478174657541 0.203341366628121
2  18 1 0 0.00471478174657541 0.203341366628121
0

0101000
+353 0 -349 0 *
Ve
1e-07
-0.150150225677542 -0.015 -0.01
0 0

0101101
*
Ed
 1e-07 1 1 0
1  7 0 1.91731198981877 3.14159265358979
2  19 12 0 1.91731198981877 3.14159265358979
2  20 1 0 1.91731198981877 3.14159265358979
0

0101000
+351 0 -347 0 *
Ve
1e-07
-0.0163636363636364 -0.0251442121562533 -0.01
0 0

0101101
*
Ed
 1e-07 1 1 0
1  8 0 1.5707963267949 2.56466130835333
2  21 13 0 1.5707963267949 2.56466130835333
2  22 1 0 1.5707963267949 2.56466130835333
0

0101000
+349 0 -345 0 *
Ve
1e-07
-0.0276586333718787 -0.015 -0.01
0 0

0101101
*
Ed
 1e-07 1 1 0
1  9 0 0.0808497743224581 0.203341366628121
2  23 14 0 0.0808497743224581 0.203341366628121
2  24 15 0 0.0808497743224581 0.203341366628121
2  25 5 0 0.0808497743224581 0.203341366628121
2  26 1 0 0.0808497743224581 0.203341366628121
0

0101000
+347 0 -343 0 *
Ve
1e-07
-0.0251442121562533 -0.0163636363636364 -0.01
0 0

0101101
*
Ed
 1e-07 1 1 0
1  10 0 3.71852399882625 4.13545763514823
2  27 16 0 3.71852399882625 4.13545763514823
2  28 17 0 3.71852399882625 4.13545763514823
2  29 5 0 3.71852399882625 4.13545763514823
2  30 1 0 3.71852399882625 4.13545763514823
0

0101000
+341 0 -345 0 *
Ed
 1e-07 1 1 0
1  11 0 2.14772767203136 3.14159265358979
2  31 18 0 2.14772767203136 3.14159265358979
2  32 1 0 2.14772767203136 3.14159265358979
0

0101000
+341 0 -343 0 *
Wi

0101100
-356 0 +354 0 -352 0 +350 0 -348 0 +346 0 -344 0 +342 0 +340 0 -339 0 
*
Ve
1.00000000031032e-07
-0.165 -8.57252759403147e-18 -0.01
0 0

0101101
*
Ed
 1.00000000031032e-07 1 1 0
1  12 0 0 6.28318530717959
2  33 1 0 0 6.28318530717959
2  34 19 0 0 6.28318530717959
2  35 20 0 0 6.28318530717959
0

0101000
+337 0 -337 0 *
Wi

0101100
-336 0 *
Ve
1e-07
0.018237885462555 -0.229275771798624 -0.01
0 0

0101101
*
Ve
1e-07
0.22473127753304 -0.0489474503765816 -0.01
0 0

0101101
*
Ed
 1e-07 1 1 0
1  2 0 4.79176746821682 6.06873024871043
2  3 3 0 4.79176746821682 6.06873024871043
2  4 4 0 4.79176746821682 6.06873024871043
2  5 5 0 4.79176746821682 6.06873024871043
2  36 1 0 4.79176746821682 6.06873024871043
0

0101000
+334 0 -333 0 *
Ve
1e-07
0.015 -0.226285218253425 -0.01
0 0

0101101
*
Ed
 1e-07 1 1 0
1  13 0 6.20380681934746 7.85398163397448
2  37 21 0 6.20380681934746 7.85398163397448
2  38 1 0 6.20380681934746 7.85398163397448
0

0101000
+334 0 -331 0 *
Ve
1e-07
0.220566037735849 -0.0455745333694996 -0.01
0 0

0101101
*
Ed
 1e-07 1 1 0
1  14 0 0 1
2  39 22 0 0 1
2  40 1 0 0 1
0

0101000
+333 0 -329 0 *
Ve
1e-07
0.015 -0.0276586333718787 -0.01
0 0

0101101
*
Ed
 1e-07 1 1 0
1  15 0 0.00471478174657541 0.203341366628121
2  41 23 0 0.00471478174657541 0.203341366628121
2  42 11 0 0.00471478174657541 0.203341366628121
2  43 5 0 0.00471478174657541 0.203341366628121
2  44 1 0 0.00471478174657541 0.203341366628121
0

0101000
+331 0 -327 0 *
Ve
1e-07
0.152971911016549 -0.0169811320754717 -0.01
0 0

0101101
*
Ed
 1e-07 1 1 0
1  16 0 3.48810831661368 5.1362915748494
2  45 24 0 3.48810831661368 5.1362915748494
2  46 25 0 3.48810831661368 5.1362915748494
2  47 5 0 3.48810831661368 5.1362915748494
2  48 1 0 3.48810831661368 5.1362915748494
0

0101000
+325 0 -329 0 *
Ve
1e-07
0.0163636363636364 -0.0251442121562533 -0.01
0 0

0101101
*
Ed
 1e-07 1 1 0
1  17 0 1.5707963267949 2.56466130835333
2  49 26 0 1.5707963267949 2.56466130835333
2  50 1 0 1.5707963267949 2.56466130835333
0

0101000
+327 0 -323 0 *
Ve
1e-07
0.150150225677542 -0.015 -0.01
0 0

0101101
*
Ed
 1e-07 1 1 0
1  18 0 1.91731198981879 3.14159265358978
2  51 27 0 1.91731198981879 3.14159265358978
2  52 1 0 1.91731198981879 3.14159265358978
0

0101000
+325 0 -321 0 *
Ve
1e-07
0.0251442121562533 -0.0163636363636364 -0.01
0 0

0101101
*
Ed
 1e-07 1 1 0
1  10 0 5.28932032562115 5.70625396194313
2  27 16 0 5.28932032562115 5.70625396194313
2  28 17 0 5.28932032562115 5.70625396194313
2  53 5 0 5.28932032562115 5.70625396194313
2  54 1 0 5.28932032562115 5.70625396194313
0

0101000
+323 0 -319 0 *
Ve
1e-07
0.0276586333718787 -0.015 -0.01
0 0

0101101
*
Ed
 1e-07 1 1 0
1  9 0 0.258658633371879 0.381150225677542
2  23 14 0 0.258658633371879 0.381150225677542
2  24 15 0 0.258658633371879 0.381150225677542
2  55 5 0 0.258658633371879 0.381150225677542
2  56 1 0 0.258658633371879 0.381150225677542
0

0101000
+317 0 -321 0 *
Ed
 1e-07 1 1 0
1  19 0 3.1415926535898 4.13545763514823
2  57 28 0 3.1415926535898 4.13545763514823
2  58 1 0 3.1415926535898 4.13545763514823
0

0101000
+317 0 -319 0 *
Wi

0101100
-332 0 +330 0 -328 0 +326 0 +324 0 +322 0 -320 0 +318 0 +316 0 -315 0 
*
Ve
1.0000000000147e-07
0.006 -1.46957615897682e-18 -0.01
0 0

0101101
*
Ed
 1e-07 1 1 0
1  20 0 0 6.28318530717959
2  59 1 0 0 6.28318530717959
2  60 29 0 0 6.28318530717959
0

0101000
+313 0 -313 0 *
Wi

0101100
-312 0 *
Ve
1.00000000031032e-07
0.235 -8.57252759403148e-18 -0.01
0 0

0101101
*
Ed
 1.00000000031032e-07 1 1 0
1  21 0 0 6.28318530717959
2  61 1 0 0 6.28318530717959
2  62 30 0 0 6.28318530717959
2  63 31 0 0 6.28318530717959
0

0101000
+310 0 -310 0 *
Wi

0101100
-309 0 *
Ve
1e-07
-0.0182378854625551 0.229275771798624 -0.01
0 0

0101101
*
Ve
1e-07
-0.22473127753304 0.0489474503765816 -0.01
0 0

0101101
*
Ed
 1e-07 1 1 0
1  2 0 1.65017481462703 2.92713759512064
2  3 3 0 1.65017481462703 2.92713759512064
2  4 4 0 1.65017481462703 2.92713759512064
2  5 5 0 1.65017481462703 2.92713759512064
2  64 1 0 1.65017481462703 2.92713759512064
0

0101000
+307 0 -306 0 *
Ve
1e-07
-0.015 0.226285218253425 -0.01
0 0

0101101
*
Ed
 1e-07 1 1 0
1  22 0 3.06221416575766 4.71238898038469
2  65 32 0 3.06221416575766 4.71238898038469
2  66 1 0 3.06221416575766 4.71238898038469
0

0101000
+307 0 -304 0 *
Ve
1e-07
-0.220566037735849 0.0455745333694996 -0.01
0 0

0101101
*
Ed
 1e-07 1 1 0
1  23 0 0 1
2  67 33 0 0 1
2  68 1 0 0 1
0

0101000
+306 0 -302 0 *
Ve
1e-07
-0.015 0.0276586333718787 -0.01
0 0

0101101
*
Ed
 1e-07 1 1 0
1  6 0 0.258658633371879 0.457285218253425
2  15 10 0 0.258658633371879 0.457285218253425
2  16 11 0 0.258658633371879 0.457285218253425
2  69 5 0 0.258658633371879 0.457285218253425
2  70 1 0 0.258658633371879 0.457285218253425
0

0101000
+300 0 -304 0 *
Ve
1e-07
-0.152971911016549 0.0169811320754717 -0.01
0 0

0101101
*
Ed
 1e-07 1 1 0
1  5 0 0.346515663023884 1.99469892125961
2  11 8 0 0.346515663023884 1.99469892125961
2  12 9 0 0.346515663023884 1.99469892125961
2  71 5 0 0.346515663023884 1.99469892125961
2  72 1 0 0.346515663023884 1.99469892125961
0

0101000
+298 0 -302 0 *
Ve
1e-07
-0.0163636363636364 0.0251442121562533 -0.01
0 0

0101101
*
Ed
 1e-07 1 1 0
1  24 0 4.71238898038469 5.70625396194313
2  73 34 0 4.71238898038469 5.70625396194313
2  74 1 0 4.71238898038469 5.70625396194313
0

0101000
+300 0 -296 0 *
Ve
1e-07
-0.150150225677542 0.015 -0.01
0 0

0101101
*
Ed
 1e-07 1 1 0
1  25 0 5.05890464340857 6.28318530717959
2  75 35 0 5.05890464340857 6.28318530717959
2  76 1 0 5.05890464340857 6.28318530717959
0

0101000
+298 0 -294 0 *
Ve
1e-07
-0.0251442121562533 0.0163636363636364 -0.01
0 0

0101101
*
Ed
 1e-07 1 1 0
1  10 0 2.14772767203135 2.56466130835334
2  27 16 0 2.14772767203135 2.56466130835334
2  28 17 0 2.14772767203135 2.56466130835334
2  77 5 0 2.14772767203135 2.56466130835334
2  78 1 0 2.14772767203135 2.56466130835334
0

0101000
+296 0 -292 0 *
Ve
1e-07
-0.0276586333718787 0.015 -0.01
0 0

0101101
*
Ed
 1e-07 1 1 0
1  26 0 0.0808497743224581 0.203341366628121
2  79 36 0 0.0808497743224581 0.203341366628121
2  80 15 0 0.0808497743224581 0.203341366628121
2  81 5 0 0.0808497743224581 0.203341366628121
2  82 1 0 0.0808497743224581 0.203341366628121
0

0101000
+294 0 -290 0 *
Ed
 1e-07 1 1 0
1  27 0 3.46944695195361e-15 0.993864981558438
2  83 37 0 3.46944695195361e-15 0.993864981558438
2  84 1 0 3.46944695195361e-15 0.993864981558438
0

0101000
+290 0 -292 0 *
Wi

0101100
-305 0 +303 0 -301 0 -299 0 +297 0 +295 0 -293 0 +291 0 -289 0 -288 0 
*
Ve
1e-07
0.22473127753304 0.0489474503765815 -0.01
0 0

0101101
*
Ve
1e-07
0.018237885462555 0.229275771798624 -0.01
0 0

0101101
*
Ed
 1e-07 1 1 0
1  2 0 0.214455058469153 1.49141783896276
2  3 3 0 0.214455058469153 1.49141783896276
2  4 4 0 0.214455058469153 1.49141783896276
2  5 5 0 0.214455058469153 1.49141783896276
2  85 1 0 0.214455058469153 1.49141783896276
0

0101000
+286 0 -285 0 *
Ve
1e-07
0.220566037735849 0.0455745333694996 -0.01
0 0

0101101
*
Ed
 1e-07 1 1 0
1  28 0 0 1
2  86 38 0 0 1
2  87 1 0 0 1
0

0101000
+286 0 -283 0 *
Ve
1e-07
0.015 0.226285218253425 -0.01
0 0

0101101
*
Ed
 1e-07 1 1 0
1  29 0 3.06221416575767 4.71238898038469
2  88 39 0 3.06221416575767 4.71238898038469
2  89 1 0 3.06221416575767 4.71238898038469
0

0101000
+285 0 -281 0 *
Ve
1e-07
0.152971911016549 0.0169811320754717 -0.01
0 0

0101101
*
Ed
 1e-07 1 1 0
1  16 0 1.14689373233019 2.79507699056591
2  45 24 0 1.14689373233019 2.79507699056591
2  46 25 0 1.14689373233019 2.79507699056591
2  90 5 0 1.14689373233019 2.79507699056591
2  91 1 0 1.14689373233019 2.79507699056591
0

0101000
+283 0 -279 0 *
Ve
1e-07
0.015 0.0276586333718787 -0.01
0 0

0101101
*
Ed
 1e-07 1 1 0
1  15 0 0.258658633371879 0.457285218253425
2  41 23 0 0.258658633371879 0.457285218253425
2  42 11 0 0.258658633371879 0.457285218253425
2  92 5 0 0.258658633371879 0.457285218253425
2  93 1 0 0.258658633371879 0.457285218253425
0

0101000
+277 0 -281 0 *
Ve
1e-07
0.150150225677542 0.015 -0.01
0 0

0101101
*
Ed
 1e-07 1 1 0
1  30 0 5.05890464340858 6.28318530717957
2  94 40 0 5.05890464340858 6.28318530717957
2  95 1 0 5.05890464340858 6.28318530717957
0

0101000
+279 0 -275 0 *
Ve
1e-07
0.0163636363636364 0.0251442121562533 -0.01
0 0

0101101
*
Ed
 1e-07 1 1 0
1  31 0 4.71238898038469 5.70625396194313
2  96 41 0 4.71238898038469 5.70625396194313
2  97 1 0 4.71238898038469 5.70625396194313
0

0101000
+277 0 -273 0 *
Ve
1e-07
0.0276586333718787 0.015 -0.01
0 0

0101101
*
Ed
 1e-07 1 1 0
1  26 0 0.258658633371879 0.381150225677542
2  79 36 0 0.258658633371879 0.381150225677542
2  80 15 0 0.258658633371879 0.381150225677542
2  98 5 0 0.258658633371879 0.381150225677542
2  99 1 0 0.258658633371879 0.381150225677542
0

0101000
+271 0 -275 0 *
Ve
1e-07
0.0251442121562533 0.0163636363636364 -0.01
0 0

0101101
*
Ed
 1e-07 1 1 0
1  10 0 0.576931345236457 0.99386498155844
2  27 16 0 0.576931345236457 0.99386498155844
2  28 17 0 0.576931345236457 0.99386498155844
2  100 5 0 0.576931345236457 0.99386498155844
2  101 1 0 0.576931345236457 0.99386498155844
0

0101000
+269 0 -273 0 *
Ed
 1e-07 1 1 0
1  32 0 5.28932032562115 6.28318530717958
2  102 42 0 5.28932032562115 6.28318530717958
2  103 1 0 5.28932032562115 6.28318530717958
0

0101000
+269 0 -271 0 *
Wi

0101100
-284 0 +282 0 -280 0 +278 0 +276 0 +274 0 -272 0 -270 0 +268 0 -267 0 
*
Fa
0  1e-07 1 0

0101000
+359 0 +338 0 +335 0 +314 0 +311 0 +308 0 +287 0 +266 0 *
Ve
3.57088938866218e-06
0.25 -4.49037159687363e-17 0.01
0 0

0101101
*
Ed
 1.00000000048986e-07 1 1 0
1  33 0 0 0.02
3  104 105CN 2 0 0 0.02
3  106 107C0 24 0 0 0.02
0

0101000
+361 0 -264 0 *
Ed
 1e-07 1 1 0
1  34 0 0 6.28318530717959
2  108 2 0 0 6.28318530717959
2  109 43 0 0 6.28318530717959
0

0101000
+264 0 -264 0 *
Wi

0101100
+263 0 +262 0 -263 0 +360 0 *
Fa
0  0 2 0

0111000
+261 0 *
Ve
1e-07
-0.22473127753304 -0.0489474503765815 0.01
0 0

0101101
*
Ed
 1e-07 1 1 0
1  35 0 -2.15959520231956e-17 0.02
2  110 6 0 -2.15959520231956e-17 0.02
2  111 3 0 -2.15959520231956e-17 0.02
4 G1 6 0 3 0
0

0101000
+358 0 -259 0 *
Ve
1e-07
-0.0182378854625551 -0.229275771798624 0.01
0 0

0101101
*
Ed
 1e-07 1 1 0
1  36 0 0 0.02
2  112 7 0 0 0.02
2  113 3 0 0 0.02
4 G1 7 0 3 0
0

0101000
+357 0 -257 0 *
Ed
 1e-07 1 1 0
1  37 0 3.35604771205895 4.63301049255256
2  114 3 0 3.35604771205895 4.63301049255256
2  115 44 0 3.35604771205895 4.63301049255256
2  116 45 0 3.35604771205895 4.63301049255256
2  117 43 0 3.35604771205895 4.63301049255256
0

0101000
+259 0 -257 0 *
Wi

0101100
+356 0 -258 0 +256 0 -255 0 *
Fa
0  1e-07 3 0

0101000
+254 0 *
Ve
1e-07
-0.220566037735849 -0.0455745333694996 0.01
0 0

0101101
*
Ed
 1e-07 1 1 0
1  38 0 -2.15959520231956e-17 0.02
2  118 6 0 -2.15959520231956e-17 0.02
2  119 8 0 -2.15959520231956e-17 0.02
4 G1 6 0 8 0
0

0101000
+355 0 -252 0 *
Ed
 1e-07 1 1 0
1  39 0 0 1
2  120 6 0 0 1
2  121 43 0 0 1
0

0101000
+259 0 -252 0 *
Wi

0101100
+354 0 -258 0 +251 0 -250 0 *
Fa
0  2.73836325785771e-16 6 0

0101000
+249 0 *
Ve
1e-07
-0.015 -0.226285218253425 0.01
0 0

0101101
*
Ed
 1e-07 1 1 0
1  40 0 0 0.02
2  122 7 0 0 0.02
2  123 10 0 0 0.02
4 G1 7 0 10 0
0

0101000
+353 0 -247 0 *
Ed
 1e-07 1 1 0
1  41 0 6.20380681934743 7.85398163397448
2  124 7 0 6.20380681934743 7.85398163397448
2  125 43 0 6.20380681934743 7.85398163397448
0

0101000
+257 0 -247 0 *
Wi

0101100
+352 0 -256 0 +246 0 -245 0 *
Fa
0  0 7 0

0101000
+244 0 *
Ve
1e-07
-0.152971911016549 -0.0169811320754717 0.01
0 0

0101101
*
Ed
 1e-07 1 1 0
1  42 0 0 0.02
2  126 12 0 0 0.02
2  127 8 0 0 0.02
4 G1 12 0 8 0
0

0101000
+351 0 -242 0 *
Ed
 1e-07 1 1 0
1  43 0 4.28848638591998 5.9366696441557
2  128 8 0 4.28848638591998 5.9366696441557
2  129 46 0 4.28848638591998 5.9366696441557
2  130 45 0 4.28848638591998 5.9366696441557
2  131 43 0 4.28848638591998 5.9366696441557
0

0101000
+252 0 -242 0 *
Wi

0101100
+350 0 -251 0 +241 0 -240 0 *
Fa
0  1e-07 8 0

0101000
+239 0 *
Ve
1e-07
-0.015 -0.0276586333718787 0.01
0 0

0101101
*
Ed
 1e-07 1 1 0
1  44 0 0.00471478174657541 0.203341366628121
2  132 10 0 0.00471478174657541 0.203341366628121
2  133 47 0 0.00471478174657541 0.203341366628121
2  134 45 0 0.00471478174657541 0.203341366628121
2  135 43 0 0.00471478174657541 0.203341366628121
0

0101000
+247 0 -237 0 *
Ed
 1e-07 1 1 0
1  45 0 0 0.02
2  136 13 0 0 0.02
2  137 10 0 0 0.02
4 G1 13 0 10 0
0

0101000
+349 0 -237 0 *
Wi

0101100
-236 0 -246 0 +235 0 +348 0 *
Fa
0  1e-07 10 0

0101000
+234 0 *
Ve
1e-07
-0.150150225677542 -0.015 0.01
0 0

0101101
*
Ed
 1e-07 1 1 0
1  46 0 0 0.02
2  138 12 0 0 0.02
2  139 14 0 0 0.02
4 G1 12 0 14 0
0

0101000
+347 0 -232 0 *
Ed
 1e-07 1 1 0
1  47 0 1.91731198981877 3.14159265358979
2  140 12 0 1.91731198981877 3.14159265358979
2  141 43 0 1.91731198981877 3.14159265358979
0

0101000
+242 0 -232 0 *
Wi

0101100
+346 0 -241 0 +231 0 -230 0 *
Fa
0  0 12 0

0101000
+229 0 *
Ve
1e-07
-0.0163636363636364 -0.0251442121562533 0.01
0 0

0101101
*
Ed
 1e-07 1 1 0
1  48 0 0 0.02
2  142 13 0 0 0.02
2  143 16 0 0 0.02
4 G1 13 0 16 0
0

0101000
+345 0 -227 0 *
Ed
 1e-07 1 1 0
1  49 0 1.5707963267949 2.56466130835333
2  144 13 0 1.5707963267949 2.56466130835333
2  145 43 0 1.5707963267949 2.56466130835333
0

0101000
+237 0 -227 0 *
Wi

0101100
+344 0 -235 0 +226 0 -225 0 *
Fa
0  0 13 0

0101000
+224 0 *
Ve
1e-07
-0.0276586333718787 -0.015 0.01
0 0

0101101
*
Ed
 1e-07 1 1 0
1  50 0 0 0.02
2  146 18 0 0 0.02
2  147 14 0 0 0.02
4 G1 18 0 14 0
0

0101000
+343 0 -222 0 *
Ed
 1e-07 1 1 0
1  51 0 0.0808497743224581 0.203341366628121
2  148 14 0 0.0808497743224581 0.203341366628121
2  149 48 0 0.0808497743224581 0.203341366628121
2  150 45 0 0.0808497743224581 0.203341366628121
2  151 43 0 0.0808497743224581 0.203341366628121
0

0101000
+232 0 -222 0 *
Wi

0101100
-342 0 +231 0 -221 0 +220 0 *
Fa
0  1e-07 14 0

0101000
+219 0 *
Ve
1e-07
-0.0251442121562533 -0.0163636363636364 0.01
0 0

0101101
*
Ed
 1e-07 1 1 0
1  52 0 0 0.02
2  152 18 0 0 0.02
2  153 16 0 0 0.02
4 G1 18 0 16 0
0

0101000
+341 0 -217 0 *
Ed
 1e-07 1 1 0
1  53 0 3.71852399882625 4.13545763514823
2  154 16 0 3.71852399882625 4.13545763514823
2  155 49 0 3.71852399882625 4.13545763514823
2  156 45 0 3.71852399882625 4.13545763514823
2  157 43 0 3.71852399882625 4.13545763514823
0

0101000
+217 0 -227 0 *
Wi

0101100
+340 0 -216 0 +226 0 -215 0 *
Fa
0  1e-07 16 0

0101000
+214 0 *
Ed
 1e-07 1 1 0
1  54 0 2.14772767203136 3.14159265358979
2  158 18 0 2.14772767203136 3.14159265358979
2  159 43 0 2.14772767203136 3.14159265358979
0

0101000
+217 0 -222 0 *
Wi

0101100
+339 0 -216 0 +221 0 -212 0 *
Fa
0  0 18 0

0101000
+211 0 *
Ve
1.00000000031032e-07
-0.165 -8.57252759403147e-18 0.01
0 0

0101101
*
Ed
 1.00000000031032e-07 1 1 0
1  55 0 0 6.28318530717959
2  160 43 0 0 6.28318530717959
2  161 19 0 0 6.28318530717959
2  162 20 0 0 6.28318530717959
0

0101000
+209 0 -209 0 *
Ed
 1e-07 1 1 0
1  56 0 0.0296202203763753 0.0496202203763753
3  163 164CN 19 0 0.0296202203763753 0.0496202203763753
3  165 166C0 20 0 0.0296202203763753 0.0496202203763753
0

0101000
+337 0 -209 0 *
Wi

0101100
-208 0 +207 0 +336 0 -207 0 *
Fa
0  1e-07 19 0

0101000
+206 0 *
Ve
1e-07
0.018237885462555 -0.229275771798624 0.01
0 0

0101101
*
Ed
 1e-07 1 1 0
1  57 0 0 0.02
2  167 21 0 0 0.02
2  168 3 0 0 0.02
4 G1 21 0 3 0
0

0101000
+334 0 -204 0 *
Ve
1e-07
0.22473127753304 -0.0489474503765816 0.01
0 0

0101101
*
Ed
 1e-07 1 1 0
1  58 0 -2.15959520231956e-17 0.02
2  169 22 0 -2.15959520231956e-17 0.02
2  170 3 0 -2.15959520231956e-17 0.02
4 G1 22 0 3 0
0

0101000
+333 0 -202 0 *
Ed
 1e-07 1 1 0
1  37 0 4.79176746821682 6.06873024871043
2  114 3 0 4.79176746821682 6.06873024871043
2  115 44 0 4.79176746821682 6.06873024871043
2  116 45 0 4.79176746821682 6.06873024871043
2  171 43 0 4.79176746821682 6.06873024871043
0

0101000
+204 0 -202 0 *
Wi

0101100
+332 0 -203 0 +201 0 -200 0 *
Fa
0  1e-07 3 0

0101000
+199 0 *
Ve
1e-07
0.015 -0.226285218253425 0.01
0 0

0101101
*
Ed
 1e-07 1 1 0
1  59 0 0 0.02
2  172 21 0 0 0.02
2  173 23 0 0 0.02
4 G1 21 0 23 0
0

0101000
+331 0 -197 0 *
Ed
 1e-07 1 1 0
1  60 0 6.20380681934746 7.85398163397448
2  174 21 0 6.20380681934746 7.85398163397448
2  175 43 0 6.20380681934746 7.85398163397448
0

0101000
+204 0 -197 0 *
Wi

0101100
+330 0 -203 0 +196 0 -195 0 *
Fa
0  0 21 0

0101000
+194 0 *
Ve
1e-07
0.220566037735849 -0.0455745333694996 0.01
0 0

0101101
*
Ed
 1e-07 1 1 0
1  61 0 -2.15959520231956e-17 0.02
2  176 22 0 -2.15959520231956e-17 0.02
2  177 24 0 -2.15959520231956e-17 0.02
4 G1 22 0 24 0
0

0101000
+329 0 -192 0 *
Ed
 1e-07 1 1 0
1  62 0 0 1
2  178 22 0 0 1
2  179 43 0 0 1
0

0101000
+202 0 -192 0 *
Wi

0101100
+328 0 -201 0 +191 0 -190 0 *
Fa
0  7.73315089161996e-16 22 0

0101000
+189 0 *
Ve
1e-07
0.015 -0.0276586333718787 0.01
0 0

0101101
*
Ed
 1e-07 1 1 0
1  63 0 0.00471478174657541 0.203341366628121
2  180 23 0 0.00471478174657541 0.203341366628121
2  181 47 0 0.00471478174657541 0.203341366628121
2  182 45 0 0.00471478174657541 0.203341366628121
2  183 43 0 0.00471478174657541 0.203341366628121
0

0101000
+197 0 -187 0 *
Ed
 1e-07 1 1 0
1  64 0 0 0.02
2  184 26 0 0 0.02
2  185 23 0 0 0.02
4 G1 26 0 23 0
0

0101000
+327 0 -187 0 *
Wi

0101100
-186 0 -196 0 +185 0 +326 0 *
Fa
0  1e-07 23 0

0101000
+184 0 *
Ve
1e-07
0.152971911016549 -0.0169811320754717 0.01
0 0

0101101
*
Ed
 1e-07 1 1 0
1  65 0 0 0.02
2  186 27 0 0 0.02
2  187 24 0 0 0.02
4 G1 27 0 24 0
0

0101000
+325 0 -182 0 *
Ed
 1e-07 1 1 0
1  66 0 3.48810831661368 5.1362915748494
2  188 24 0 3.48810831661368 5.1362915748494
2  189 50 0 3.48810831661368 5.1362915748494
2  190 45 0 3.48810831661368 5.1362915748494
2  191 43 0 3.48810831661368 5.1362915748494
0

0101000
+182 0 -192 0 *
Wi

0101100
+324 0 -181 0 +191 0 -180 0 *
Fa
0  1e-07 24 0

0101000
+179 0 *
Ve
1e-07
0.0163636363636364 -0.0251442121562533 0.01
0 0

0101101
*
Ed
 1e-07 1 1 0
1  67 0 0 0.02
2  192 26 0 0 0.02
2  193 16 0 0 0.02
4 G1 26 0 16 0
0

0101000
+323 0 -177 0 *
Ed
 1e-07 1 1 0
1  68 0 1.5707963267949 2.56466130835333
2  194 26 0 1.5707963267949 2.56466130835333
2  195 43 0 1.5707963267949 2.56466130835333
0

0101000
+187 0 -177 0 *
Wi

0101100
+322 0 -185 0 +176 0 -175 0 *
Fa
0  0 26 0

0101000
+174 0 *
Ve
1e-07
0.150150225677542 -0.015 0.01
0 0

0101101
*
Ed
 1e-07 1 1 0
1  69 0 0 0.02
2  196 27 0 0 0.02
2  197 14 0 0 0.02
4 G1 27 0 14 0
0

0101000
+321 0 -172 0 *
Ed
 1e-07 1 1 0
1  70 0 1.91731198981879 3.14159265358978
2  198 27 0 1.91731198981879 3.14159265358978
2  199 43 0 1.91731198981879 3.14159265358978
0

0101000
+182 0 -172 0 *
Wi

0101100
+320 0 -181 0 +171 0 -170 0 *
Fa
0  0 27 0

0101000
+169 0 *
Ve
1e-07
0.0251442121562533 -0.0163636363636364 0.01
0 0

0101101
*
Ed
 1e-07 1 1 0
1  71 0 0 0.02
2  200 28 0 0 0.02
2  201 16 0 0 0.02
4 G1 28 0 16 0
0

0101000
+319 0 -167 0 *
Ed
 1e-07 1 1 0
1  53 0 5.28932032562115 5.70625396194313
2  154 16 0 5.28932032562115 5.70625396194313
2  155 49 0 5.28932032562115 5.70625396194313
2  202 45 0 5.28932032562115 5.70625396194313
2  203 43 0 5.28932032562115 5.70625396194313
0

0101000
+177 0 -167 0 *
Wi

0101100
+318 0 -176 0 +166 0 -165 0 *
Fa
0  1e-07 16 0

0101000
+164 0 *
Ve
1e-07
0.0276586333718787 -0.015 0.01
0 0

0101101
*
Ed
 1e-07 1 1 0
1  72 0 0 0.02
2  204 28 0 0 0.02
2  205 14 0 0 0.02
4 G1 28 0 14 0
0

0101000
+317 0 -162 0 *
Ed
 1e-07 1 1 0
1  51 0 0.258658633371879 0.381150225677542
2  148 14 0 0.258658633371879 0.381150225677542
2  149 48 0 0.258658633371879 0.381150225677542
2  206 45 0 0.258658633371879 0.381150225677542
2  207 43 0 0.258658633371879 0.381150225677542
0

0101000
+162 0 -172 0 *
Wi

0101100
-316 0 +161 0 -171 0 +160 0 *
Fa
0  1e-07 14 0

0101000
+159 0 *
Ed
 1e-07 1 1 0
1  73 0 3.1415926535898 4.13545763514823
2  208 28 0 3.1415926535898 4.13545763514823
2  209 43 0 3.1415926535898 4.13545763514823
0

0101000
+162 0 -167 0 *
Wi

0101100
+315 0 -161 0 +166 0 -157 0 *
Fa
0  0 28 0

0101000
+156 0 *
Ve
1.0000000000147e-07
0.006 -1.46957615897682e-18 0.01
0 0

0101101
*
Ed
 1e-07 1 1 0
1  74 0 0 6.28318530717959
2  210 43 0 0 6.28318530717959
2  211 29 0 0 6.28318530717959
0

0101000
+154 0 -154 0 *
Ed
 1e-07 1 1 0
1  75 0 0.000999999999999999 0.021
3  212 213CN 29 0 0.000999999999999999 0.021
0

0101000
+313 0 -154 0 *
Wi

0101100
-153 0 +152 0 +312 0 -152 0 *
Fa
0  1e-07 29 0

0101000
+151 0 *
Ve
1.00000000031032e-07
0.235 -8.57252759403148e-18 0.01
0 0

0101101
*
Ed
 1.00000000031032e-07 1 1 0
1  76 0 0 6.28318530717959
2  214 43 0 0 6.28318530717959
2  215 30 0 0 6.28318530717959
2  216 31 0 0 6.28318530717959
0

0101000
+149 0 -149 0 *
Ed
 1e-07 1 1 0
1  77 0 0.0296202203763753 0.0496202203763753
3  217 218CN 30 0 0.0296202203763753 0.0496202203763753
3  219 220C0 31 0 0.0296202203763753 0.0496202203763753
0

0101000
+310 0 -149 0 *
Wi

0101100
-148 0 +147 0 +309 0 -147 0 *
Fa
0  1e-07 30 0

0101000
+146 0 *
Ve
1e-07
-0.0182378854625551 0.229275771798624 0.01
0 0

0101101
*
Ve
1e-07
-0.22473127753304 0.0489474503765816 0.01
0 0

0101101
*
Ed
 1e-07 1 1 0
1  37 0 1.65017481462703 2.92713759512064
2  114 3 0 1.65017481462703 2.92713759512064
2  115 44 0 1.65017481462703 2.92713759512064
2  116 45 0 1.65017481462703 2.92713759512064
2  221 43 0 1.65017481462703 2.92713759512064
0

0101000
+144 0 -143 0 *
Ed
 1e-07 1 1 0
1  78 0 0 0.02
2  222 32 0 0 0.02
2  223 3 0 0 0.02
4 G1 32 0 3 0
0

0101000
+307 0 -144 0 *
Ed
 1e-07 1 1 0
1  79 0 -2.15959520231956e-17 0.02
2  224 33 0 -2.15959520231956e-17 0.02
2  225 3 0 -2.15959520231956e-17 0.02
4 G1 33 0 3 0
0

0101000
+306 0 -143 0 *
Wi

0101100
-142 0 -141 0 +140 0 +305 0 *
Fa
0  1e-07 3 0

0101000
+139 0 *
Ve
1e-07
-0.015 0.226285218253425 0.01
0 0

0101101
*
Ed
 1e-07 1 1 0
1  80 0 0 0.02
2  226 32 0 0 0.02
2  227 10 0 0 0.02
4 G1 32 0 10 0
0

0101000
+304 0 -137 0 *
Ed
 1e-07 1 1 0
1  81 0 3.06221416575766 4.71238898038469
2  228 32 0 3.06221416575766 4.71238898038469
2  229 43 0 3.06221416575766 4.71238898038469
0

0101000
+144 0 -137 0 *
Wi

0101100
+303 0 -141 0 +136 0 -135 0 *
Fa
0  0 32 0

0101000
+134 0 *
Ve
1e-07
-0.220566037735849 0.0455745333694996 0.01
0 0

0101101
*
Ed
 1e-07 1 1 0
1  82 0 -2.15959520231956e-17 0.02
2  230 33 0 -2.15959520231956e-17 0.02
2  231 8 0 -2.15959520231956e-17 0.02
4 G1 33 0 8 0
0

0101000
+302 0 -132 0 *
Ed
 1e-07 1 1 0
1  83 0 0 1
2  232 33 0 0 1
2  233 43 0 0 1
0

0101000
+143 0 -132 0 *
Wi

0101100
+301 0 -140 0 +131 0 -130 0 *
Fa
0  3.79460936593848e-16 33 0

0101000
+129 0 *
Ve
1e-07
-0.015 0.0276586333718787 0.01
0 0

0101101
*
Ed
 1e-07 1 1 0
1  44 0 0.258658633371879 0.457285218253425
2  132 10 0 0.258658633371879 0.457285218253425
2  133 47 0 0.258658633371879 0.457285218253425
2  234 45 0 0.258658633371879 0.457285218253425
2  235 43 0 0.258658633371879 0.457285218253425
0

0101000
+127 0 -137 0 *
Ed
 1e-07 1 1 0
1  84 0 0 0.02
2  236 34 0 0 0.02
2  237 10 0 0 0.02
4 G1 34 0 10 0
0

0101000
+300 0 -127 0 *
Wi

0101100
-126 0 -125 0 +136 0 +299 0 *
Fa
0  1e-07 10 0

0101000
+124 0 *
Ve
1e-07
-0.152971911016549 0.0169811320754717 0.01
0 0

0101101
*
Ed
 1e-07 1 1 0
1  43 0 0.346515663023884 1.99469892125961
2  128 8 0 0.346515663023884 1.99469892125961
2  129 46 0 0.346515663023884 1.99469892125961
2  238 45 0 0.346515663023884 1.99469892125961
2  239 43 0 0.346515663023884 1.99469892125961
0

0101000
+122 0 -132 0 *
Ed
 1e-07 1 1 0
1  85 0 0 0.02
2  240 35 0 0 0.02
2  241 8 0 0 0.02
4 G1 35 0 8 0
0

0101000
+298 0 -122 0 *
Wi

0101100
-121 0 -120 0 +131 0 +297 0 *
Fa
0  1e-07 8 0

0101000
+119 0 *
Ve
1e-07
-0.0163636363636364 0.0251442121562533 0.01
0 0

0101101
*
Ed
 1e-07 1 1 0
1  86 0 0 0.02
2  242 34 0 0 0.02
2  243 16 0 0 0.02
4 G1 34 0 16 0
0

0101000
+296 0 -117 0 *
Ed
 1e-07 1 1 0
1  87 0 4.71238898038469 5.70625396194313
2  244 34 0 4.71238898038469 5.70625396194313
2  245 43 0 4.71238898038469 5.70625396194313
0

0101000
+127 0 -117 0 *
Wi

0101100
+295 0 -125 0 +116 0 -115 0 *
Fa
0  0 34 0

0101000
+114 0 *
Ve
1e-07
-0.150150225677542 0.015 0.01
0 0

0101101
*
Ed
 1e-07 1 1 0
1  88 0 0 0.02
2  246 35 0 0 0.02
2  247 36 0 0 0.02
4 G1 35 0 36 0
0

0101000
+294 0 -112 0 *
Ed
 1e-07 1 1 0
1  89 0 5.05890464340857 6.28318530717959
2  248 35 0 5.05890464340857 6.28318530717959
2  249 43 0 5.05890464340857 6.28318530717959
0

0101000
+122 0 -112 0 *
Wi

0101100
+293 0 -120 0 +111 0 -110 0 *
Fa
0  0 35 0

0101000
+109 0 *
Ve
1e-07
-0.0251442121562533 0.0163636363636364 0.01
0 0

0101101
*
Ed
 1e-07 1 1 0
1  53 0 2.14772767203135 2.56466130835334
2  154 16 0 2.14772767203135 2.56466130835334
2  155 49 0 2.14772767203135 2.56466130835334
2  250 45 0 2.14772767203135 2.56466130835334
2  251 43 0 2.14772767203135 2.56466130835334
0

0101000
+117 0 -107 0 *
Ed
 1e-07 1 1 0
1  90 0 0 0.02
2  252 37 0 0 0.02
2  253 16 0 0 0.02
4 G1 37 0 16 0
0

0101000
+292 0 -107 0 *
Wi

0101100
-106 0 -116 0 +105 0 +291 0 *
Fa
0  1e-07 16 0

0101000
+104 0 *
Ve
1e-07
-0.0276586333718787 0.015 0.01
0 0

0101101
*
Ed
 1e-07 1 1 0
1  91 0 0 0.02
2  254 37 0 0 0.02
2  255 36 0 0 0.02
4 G1 37 0 36 0
0

0101000
+290 0 -102 0 *
Ed
 1e-07 1 1 0
1  92 0 0.0808497743224581 0.203341366628121
2  256 36 0 0.0808497743224581 0.203341366628121
2  257 48 0 0.0808497743224581 0.203341366628121
2  258 45 0 0.0808497743224581 0.203341366628121
2  259 43 0 0.0808497743224581 0.203341366628121
0

0101000
+112 0 -102 0 *
Wi

0101100
-289 0 +111 0 -101 0 +100 0 *
Fa
0  1e-07 36 0

0101000
+99 0 *
Ed
 1e-07 1 1 0
1  93 0 3.46944695195361e-15 0.993864981558438
2  260 37 0 3.46944695195361e-15 0.993864981558438
2  261 43 0 3.46944695195361e-15 0.993864981558438
0

0101000
+102 0 -107 0 *
Wi

0101100
+288 0 -101 0 +105 0 -97 0 *
Fa
0  0 37 0

0101000
+96 0 *
Ve
1e-07
0.22473127753304 0.0489474503765815 0.01
0 0

0101101
*
Ve
1e-07
0.018237885462555 0.229275771798624 0.01
0 0

0101101
*
Ed
 1e-07 1 1 0
1  37 0 0.214455058469153 1.49141783896276
2  114 3 0 0.214455058469153 1.49141783896276
2  115 44 0 0.214455058469153 1.49141783896276
2  116 45 0 0.214455058469153 1.49141783896276
2  262 43 0 0.214455058469153 1.49141783896276
0

0101000
+94 0 -93 0 *
Ed
 1e-07 1 1 0
1  94 0 -2.15959520231956e-17 0.02
2  263 38 0 -2.15959520231956e-17 0.02
2  264 3 0 -2.15959520231956e-17 0.02
4 G1 38 0 3 0
0

0101000
+286 0 -94 0 *
Ed
 1e-07 1 1 0
1  95 0 0 0.02
2  265 39 0 0 0.02
2  266 3 0 0 0.02
4 G1 39 0 3 0
0

0101000
+285 0 -93 0 *
Wi

0101100
-92 0 -91 0 +90 0 +284 0 *
Fa
0  1e-07 3 0

0101000
+89 0 *
Ve
1e-07
0.220566037735849 0.0455745333694996 0.01
0 0

0101101
*
Ed
 1e-07 1 1 0
1  96 0 -2.15959520231956e-17 0.02
2  267 38 0 -2.15959520231956e-17 0.02
2  268 24 0 -2.15959520231956e-17 0.02
4 G1 38 0 24 0
0

0101000
+283 0 -87 0 *
Ed
 1e-07 1 1 0
1  97 0 0 1
2  269 38 0 0 1
2  270 43 0 0 1
0

0101000
+94 0 -87 0 *
Wi

0101100
+282 0 -91 0 +86 0 -85 0 *
Fa
0  9.67328508883316e-17 38 0

0101000
+84 0 *
Ve
1e-07
0.015 0.226285218253425 0.01
0 0

0101101
*
Ed
 1e-07 1 1 0
1  98 0 0 0.02
2  271 39 0 0 0.02
2  272 23 0 0 0.02
4 G1 39 0 23 0
0

0101000
+281 0 -82 0 *
Ed
 1e-07 1 1 0
1  99 0 3.06221416575767 4.71238898038469
2  273 39 0 3.06221416575767 4.71238898038469
2  274 43 0 3.06221416575767 4.71238898038469
0

0101000
+93 0 -82 0 *
Wi

0101100
+280 0 -90 0 +81 0 -80 0 *
Fa
0  0 39 0

0101000
+79 0 *
Ve
1e-07
0.152971911016549 0.0169811320754717 0.01
0 0

0101101
*
Ed
 1e-07 1 1 0
1  66 0 1.14689373233019 2.79507699056591
2  188 24 0 1.14689373233019 2.79507699056591
2  189 50 0 1.14689373233019 2.79507699056591
2  275 45 0 1.14689373233019 2.79507699056591
2  276 43 0 1.14689373233019 2.79507699056591
0

0101000
+87 0 -77 0 *
Ed
 1e-07 1 1 0
1  100 0 0 0.02
2  277 40 0 0 0.02
2  278 24 0 0 0.02
4 G1 40 0 24 0
0

0101000
+279 0 -77 0 *
Wi

0101100
-76 0 -86 0 +75 0 +278 0 *
Fa
0  1e-07 24 0

0101000
+74 0 *
Ve
1e-07
0.015 0.0276586333718787 0.01
0 0

0101101
*
Ed
 1e-07 1 1 0
1  63 0 0.258658633371879 0.457285218253425
2  180 23 0 0.258658633371879 0.457285218253425
2  181 47 0 0.258658633371879 0.457285218253425
2  279 45 0 0.258658633371879 0.457285218253425
2  280 43 0 0.258658633371879 0.457285218253425
0

0101000
+72 0 -82 0 *
Ed
 1e-07 1 1 0
1  101 0 0 0.02
2  281 41 0 0 0.02
2  282 23 0 0 0.02
4 G1 41 0 23 0
0

0101000
+277 0 -72 0 *
Wi

0101100
-71 0 -70 0 +81 0 +276 0 *
Fa
0  1e-07 23 0

0101000
+69 0 *
Ve
1e-07
0.150150225677542 0.015 0.01
0 0

0101101
*
Ed
 1e-07 1 1 0
1  102 0 0 0.02
2  283 40 0 0 0.02
2  284 36 0 0 0.02
4 G1 40 0 36 0
0

0101000
+275 0 -67 0 *
Ed
 1e-07 1 1 0
1  103 0 5.05890464340858 6.28318530717957
2  285 40 0 5.05890464340858 6.28318530717957
2  286 43 0 5.05890464340858 6.28318530717957
0

0101000
+77 0 -67 0 *
Wi

0101100
+274 0 -75 0 +66 0 -65 0 *
Fa
0  0 40 0

0101000
+64 0 *
Ve
1e-07
0.0163636363636364 0.0251442121562533 0.01
0 0

0101101
*
Ed
 1e-07 1 1 0
1  104 0 0 0.02
2  287 41 0 0 0.02
2  288 16 0 0 0.02
4 G1 41 0 16 0
0

0101000
+273 0 -62 0 *
Ed
 1e-07 1 1 0
1  105 0 4.71238898038469 5.70625396194313
2  289 41 0 4.71238898038469 5.70625396194313
2  290 43 0 4.71238898038469 5.70625396194313
0

0101000
+72 0 -62 0 *
Wi

0101100
+272 0 -70 0 +61 0 -60 0 *
Fa
0  0 41 0

0101000
+59 0 *
Ve
1e-07
0.0276586333718787 0.015 0.01
0 0

0101101
*
Ed
 1e-07 1 1 0
1  106 0 0 0.02
2  291 42 0 0 0.02
2  292 36 0 0 0.02
4 G1 42 0 36 0
0

0101000
+271 0 -57 0 *
Ed
 1e-07 1 1 0
1  92 0 0.258658633371879 0.381150225677542
2  256 36 0 0.258658633371879 0.381150225677542
2  257 48 0 0.258658633371879 0.381150225677542
2  293 45 0 0.258658633371879 0.381150225677542
2  294 43 0 0.258658633371879 0.381150225677542
0

0101000
+57 0 -67 0 *
Wi

0101100
-270 0 +56 0 -66 0 +55 0 *
Fa
0  1e-07 36 0

0101000
+54 0 *
Ve
1e-07
0.0251442121562533 0.0163636363636364 0.01
0 0

0101101
*
Ed
 1e-07 1 1 0
1  53 0 0.576931345236457 0.99386498155844
2  154 16 0 0.576931345236457 0.99386498155844
2  155 49 0 0.576931345236457 0.99386498155844
2  295 45 0 0.576931345236457 0.99386498155844
2  296 43 0 0.576931345236457 0.99386498155844
0

0101000
+52 0 -62 0 *
Ed
 1e-07 1 1 0
1  107 0 0 0.02
2  297 42 0 0 0.02
2  298 16 0 0 0.02
4 G1 42 0 16 0
0

0101000
+269 0 -52 0 *
Wi

0101100
-51 0 -50 0 +61 0 +268 0 *
Fa
0  1e-07 16 0

0101000
+49 0 *
Ed
 1e-07 1 1 0
1  108 0 5.28932032562115 6.28318530717958
2  299 42 0 5.28932032562115 6.28318530717958
2  300 43 0 5.28932032562115 6.28318530717958
0

0101000
+52 0 -57 0 *
Wi

0101100
+267 0 -50 0 +56 0 -47 0 *
Fa
0  0 42 0

0101000
+46 0 *
Wi

0101100
-262 0 *
Wi

0101100
-255 0 +250 0 -245 0 +240 0 -236 0 +230 0 -225 0 +220 0 +215 0 -212 0 
*
Wi

0101100
-208 0 *
Wi

0101100
-200 0 +195 0 -190 0 +186 0 +180 0 +175 0 -170 0 +165 0 +160 0 -157 0 
*
Wi

0101100
-153 0 *
Wi

0101100
-148 0 *
Wi

0101100
-142 0 +135 0 -130 0 -126 0 +121 0 +115 0 -110 0 +106 0 -100 0 -97 0 
*
Wi

0101100
-92 0 +85 0 -80 0 +76 0 +71 0 +65 0 -60 0 -55 0 +51 0 -47 0 
*
Fa
0  1e-07 43 0

0101000
+44 0 +43 0 +42 0 +41 0 +40 0 +39 0 +38 0 +37 0 *
Sh

0101100
-265 0 +260 0 -253 0 +248 0 -243 0 +238 0 -233 0 +228 0 -223 0 -218 0 
+213 0 -210 0 -205 0 -198 0 +193 0 -188 0 +183 0 +178 0 +173 0 -168 0 
+163 0 -158 0 -155 0 -150 0 -145 0 -138 0 +133 0 -128 0 -123 0 +118 0 
+113 0 -108 0 +103 0 +98 0 -95 0 -88 0 +83 0 -78 0 +73 0 +68 0 
+63 0 -58 0 +53 0 +48 0 -45 0 +36 0 *
So

0100000
+35 0 *
Ve
1e-07
0.235 -8.57252759403148e-18 0.0396202203763753
0 0

0101101
*
Ed
 1e-07 1 1 0
1  109 0 0.0496202203763753 0.0792404407527506
3  301 302CN 31 0 0.0496202203763753 0.0792404407527506
0

0101000
+149 0 -33 0 *
Ed
 1e-07 1 1 0
1  110 0 0 6.28318530717959
2  303 31 0 0 6.28318530717959
2  304 51 0 0 6.28318530717959
0

0101000
+33 0 -33 0 *
Wi

0101100
+32 0 +148 0 -32 0 -31 0 *
Fa
0  1e-07 31 0

0101000
+30 0 *
Ve
1e-07
0.235 -8.57252759403148e-18 -0.0396202203763753
0 0

0101101
*
Ed
 1e-07 1 1 0
1  109 0 0 0.0296202203763753
3  301 302CN 31 0 0 0.0296202203763753
0

0101000
+28 0 -310 0 *
Ed
 1e-07 1 1 0
1  111 0 0 6.28318530717959
2  305 31 0 0 6.28318530717959
2  306 52 0 0 6.28318530717959
0

0101000
+28 0 -28 0 *
Wi

0101100
-309 0 +27 0 +26 0 -27 0 *
Fa
0  1e-07 31 0

0101000
+25 0 *
Wi

0101100
+31 0 *
Fa
0  1e-07 51 0

0111000
+23 0 *
Wi

0101100
-26 0 *
Fa
0  1e-07 52 0

0111000
-21 0 *
Sh

0101100
+29 0 +145 0 +24 0 +22 0 -20 0 *
So

0100000
+19 0 *
Ve
1e-07
-0.165 -8.57252759403147e-18 0.0396202203763753
0 0

0101101
*
Ed
 1e-07 1 1 0
1  112 0 0.0496202203763753 0.0792404407527506
3  307 308CN 20 0 0.0496202203763753 0.0792404407527506
0

0101000
+209 0 -17 0 *
Ed
 1e-07 1 1 0
1  113 0 0 6.28318530717959
2  309 20 0 0 6.28318530717959
2  310 53 0 0 6.28318530717959
0

0101000
+17 0 -17 0 *
Wi

0101100
+16 0 +208 0 -16 0 -15 0 *
Fa
0  1e-07 20 0

0101000
+14 0 *
Ve
1e-07
-0.165 -8.57252759403147e-18 -0.0396202203763753
0 0

0101101
*
Ed
 1e-07 1 1 0
1  112 0 0 0.0296202203763753
3  307 308CN 20 0 0 0.0296202203763753
0

0101000
+12 0 -337 0 *
Ed
 1e-07 1 1 0
1  114 0 0 6.28318530717959
2  311 20 0 0 6.28318530717959
2  312 54 0 0 6.28318530717959
0

0101000
+12 0 -12 0 *
Wi

0101100
-336 0 +11 0 +10 0 -11 0 *
Fa
0  1e-07 20 0

0101000
+9 0 *
Wi

0101100
+15 0 *
Fa
0  1e-07 53 0

0111000
+7 0 *
Wi

0101100
-10 0 *
Fa
0  1e-07 54 0

0111000
-5 0 *
Sh

0101100
+13 0 +205 0 +8 0 +6 0 -4 0 *
So

0100000
+3 0 *
Co

1100000
+34 0 +18 0 +2 0 *

+1 0 